<?xml version="1.0" encoding="UTF-8" ?>
<!DOCTYPE svg PUBLIC "-//W3C//DTD SVG 1.1//EN" "http://www.w3.org/Graphics/SVG/1.1/DTD/svg11.dtd">
<svg width="567pt" height="794pt" viewBox="0 0 567 794" version="1.1" xmlns="http://www.w3.org/2000/svg">
<g id="#000000ff">
<path fill="#000000" opacity="1.00" d=" M 0.00 0.00 L 567.00 0.00 L 567.00 794.00 L 0.00 794.00 L 0.00 0.00 M 1.03 1.02 C 0.98 265.02 1.02 529.01 1.00 793.00 C 189.34 793.00 377.67 793.01 566.00 792.99 C 565.98 529.01 566.03 265.02 565.97 1.03 C 377.66 0.98 189.34 1.00 1.03 1.02 Z" />
<path fill="#000000" opacity="1.00" d=" M 437.89 61.24 C 445.73 57.97 454.52 59.45 462.36 61.94 C 470.65 65.04 478.74 68.67 486.95 72.00 C 497.81 77.10 509.38 80.49 521.07 83.09 C 526.95 84.48 533.01 84.09 538.99 84.46 C 544.29 86.03 547.59 91.05 550.35 95.53 C 556.99 105.91 559.02 120.17 553.07 131.28 C 542.19 132.05 531.22 129.76 521.08 125.91 C 511.23 121.49 501.25 116.98 492.71 110.25 C 481.38 101.35 470.81 91.52 460.35 81.63 C 455.91 78.43 452.18 73.66 446.55 72.62 C 443.25 71.89 439.75 72.24 436.65 73.58 C 439.17 73.66 441.69 73.58 444.22 73.68 C 441.64 76.87 438.79 80.02 437.64 84.06 C 433.01 97.76 429.65 112.23 420.99 124.13 C 427.63 125.24 434.35 124.59 441.02 124.11 C 448.86 123.93 454.54 130.69 458.26 136.82 C 463.09 144.27 463.01 153.42 463.81 161.94 C 464.70 170.99 463.90 180.07 463.44 189.12 C 473.10 185.44 481.56 179.15 488.34 171.40 C 501.14 157.84 506.32 138.68 506.35 120.38 C 508.41 121.50 510.48 122.63 512.52 123.81 C 511.86 133.59 511.17 143.39 509.80 153.09 C 508.00 160.76 505.42 168.53 500.47 174.78 C 491.17 187.21 476.87 194.66 462.58 199.90 C 462.35 204.48 462.23 210.54 466.71 213.22 C 473.25 217.45 480.40 220.74 486.56 225.55 C 491.13 229.28 491.77 235.65 492.62 241.08 C 493.11 253.00 491.86 265.21 487.65 276.43 C 483.89 284.84 479.17 292.96 472.83 299.70 C 469.08 304.32 464.18 307.77 459.77 311.70 C 453.17 317.33 446.89 323.36 441.21 329.93 C 446.82 338.13 450.61 348.01 450.58 358.03 C 450.57 365.91 446.20 374.49 438.34 377.03 C 432.45 379.19 425.81 376.61 421.43 372.49 C 416.61 368.29 414.87 361.93 411.60 356.72 C 408.16 357.25 404.71 357.77 401.29 358.43 C 399.48 360.77 398.18 363.46 396.50 365.89 C 399.23 371.86 399.69 378.45 399.47 384.91 C 405.10 397.26 409.79 410.04 415.46 422.39 C 423.01 441.04 430.81 460.49 429.79 481.00 C 429.19 494.21 427.19 507.36 423.91 520.18 C 429.87 533.77 432.50 548.50 435.11 563.03 C 437.45 579.35 439.47 595.72 442.30 611.97 C 443.06 619.49 445.09 626.82 447.83 633.85 C 450.21 639.12 455.99 643.68 462.05 641.86 C 469.20 640.99 474.93 635.93 481.99 634.84 C 486.39 634.31 489.96 637.05 493.28 639.48 C 500.77 641.16 506.10 647.81 507.92 655.01 C 509.35 660.56 509.45 666.33 509.45 672.03 C 509.28 676.06 508.88 680.28 506.87 683.87 C 504.98 686.58 501.90 688.11 499.92 690.75 C 497.83 693.65 494.11 694.01 490.83 693.85 C 486.60 698.90 479.39 701.05 473.16 698.65 C 470.26 701.00 466.48 701.60 462.91 702.21 C 456.66 703.18 450.27 702.78 444.10 701.46 C 437.95 700.48 431.85 698.64 426.49 695.44 C 423.09 693.47 421.23 689.92 419.48 686.57 C 415.05 677.61 408.66 669.47 400.48 663.65 C 397.56 661.50 393.59 660.71 391.45 657.60 C 388.06 652.41 385.31 646.83 382.95 641.11 C 377.15 629.96 372.63 618.19 368.90 606.20 C 363.09 589.76 358.42 572.95 354.67 555.93 C 354.31 552.97 352.81 549.87 354.14 546.98 C 355.60 543.51 355.97 539.74 356.18 536.02 C 346.38 544.04 336.53 552.53 324.61 557.25 C 325.68 566.72 328.26 575.93 330.74 585.11 C 332.96 591.98 334.84 599.05 338.40 605.39 C 339.64 605.79 340.88 606.20 342.12 606.62 C 344.18 605.21 346.47 603.87 349.08 604.13 C 352.74 604.02 355.50 606.79 357.91 609.17 C 362.27 609.57 366.07 612.51 367.21 616.80 C 369.59 625.57 368.41 635.05 365.45 643.55 C 364.38 646.41 363.19 649.84 360.05 650.99 C 358.01 651.81 355.99 652.70 354.17 653.97 C 351.40 655.86 347.93 655.58 344.77 655.30 C 339.66 660.16 332.16 658.97 325.96 657.39 C 322.14 657.90 318.27 658.82 314.43 657.83 C 306.50 656.34 296.97 655.41 291.70 648.53 C 289.49 640.93 287.64 633.12 283.72 626.15 C 282.08 632.68 281.06 639.34 280.37 646.03 C 280.29 649.86 279.73 653.87 281.18 657.53 C 282.59 661.55 284.81 665.21 287.20 668.71 C 290.75 668.38 294.45 667.60 297.93 668.83 C 301.28 669.81 303.83 672.28 306.52 674.37 C 310.20 675.72 314.34 676.88 316.80 680.18 C 321.43 686.41 322.10 694.54 321.90 702.05 C 321.51 708.53 319.63 715.24 315.16 720.13 C 312.83 723.10 308.21 720.94 305.93 723.95 C 302.01 727.83 295.94 727.13 291.00 726.12 C 288.05 728.36 284.84 730.73 280.98 730.87 C 275.44 731.45 270.28 728.91 265.22 727.25 C 257.04 729.67 248.02 729.24 240.23 725.68 C 237.49 724.30 234.59 722.75 232.84 720.14 C 229.73 711.47 224.82 703.60 220.72 695.38 C 219.25 692.05 216.72 689.29 215.45 685.88 C 215.01 680.14 216.67 674.55 217.19 668.88 C 219.53 645.64 218.09 622.26 216.81 599.00 C 215.43 585.02 214.74 570.96 214.58 556.92 C 214.05 551.12 213.35 545.33 212.64 539.55 C 206.25 534.97 202.10 528.02 198.40 521.25 C 194.46 527.60 188.39 532.02 183.06 537.09 C 176.70 542.80 169.17 546.99 162.47 552.24 C 155.92 565.07 153.77 579.74 154.29 594.03 C 154.65 598.92 155.40 603.86 157.39 608.39 C 160.78 607.31 164.78 605.88 168.15 607.81 C 169.96 608.64 171.24 610.22 172.53 611.68 C 177.09 611.08 181.92 612.52 184.62 616.43 C 191.07 625.63 192.16 637.88 189.31 648.55 C 187.67 653.18 186.18 659.18 180.83 660.75 C 177.48 662.40 173.44 661.03 170.27 663.17 C 165.87 665.72 160.65 665.60 155.79 664.78 C 151.88 666.16 148.26 668.69 143.92 668.61 C 139.50 669.17 135.34 667.03 131.03 666.87 C 123.46 668.53 115.87 665.97 108.95 663.08 C 103.71 660.88 99.75 656.21 98.06 650.82 C 93.78 637.60 92.18 623.72 90.54 609.98 C 89.92 600.00 89.35 589.98 90.23 580.00 C 90.11 567.04 91.34 554.08 94.19 541.43 C 95.42 535.14 97.27 528.92 100.25 523.23 C 105.54 514.96 115.91 512.37 122.07 504.98 C 126.35 500.17 130.68 495.26 133.54 489.43 C 139.75 477.96 143.87 465.53 147.24 452.97 C 151.43 439.80 154.23 426.26 156.81 412.69 C 140.69 411.27 126.56 401.55 115.57 390.20 C 101.84 376.47 84.11 365.93 64.61 363.53 L 65.05 364.20 C 60.99 362.59 56.61 364.08 52.49 364.63 C 48.74 365.13 45.31 367.20 41.45 366.98 C 41.35 366.21 41.15 364.65 41.05 363.88 C 43.35 360.75 46.75 358.72 50.29 357.29 C 61.79 352.14 74.89 351.89 87.09 354.28 C 99.62 357.68 110.78 364.59 121.23 372.10 C 121.30 372.83 121.44 374.29 121.51 375.02 C 116.68 371.63 111.63 368.55 106.73 365.26 C 91.92 355.73 72.97 352.24 55.98 357.41 C 50.92 358.93 45.17 360.38 42.12 365.13 C 46.86 364.73 51.18 362.43 55.93 362.11 C 70.95 360.20 85.53 366.30 98.19 373.79 C 111.01 381.66 120.53 393.81 133.36 401.65 C 140.45 406.45 148.64 409.68 157.14 410.75 C 158.61 403.42 160.63 396.13 163.97 389.42 C 158.29 390.00 152.43 390.00 146.99 388.08 C 137.62 385.67 129.58 380.16 121.46 375.14 C 121.94 374.53 122.43 373.92 122.91 373.32 C 126.89 376.04 131.23 378.14 135.35 380.64 C 143.75 385.30 153.36 387.79 162.98 387.61 C 165.06 387.71 166.22 385.92 167.35 384.48 C 176.98 371.43 189.98 360.93 204.46 353.70 C 213.35 349.54 223.10 346.38 233.03 347.30 C 244.72 347.70 256.52 351.01 268.13 348.25 C 272.84 347.45 277.52 346.50 282.08 345.07 C 283.95 338.50 286.51 331.53 292.48 327.60 C 292.75 322.69 292.54 317.63 291.12 312.88 C 287.65 309.90 283.50 307.76 280.06 304.72 C 277.92 313.16 276.27 321.82 271.99 329.52 C 267.96 327.65 263.79 326.09 259.78 324.19 C 254.22 321.54 248.20 319.97 242.82 316.93 C 226.44 309.96 211.10 299.87 199.67 286.08 C 196.52 282.25 192.64 278.71 191.17 273.83 C 190.29 270.00 190.33 266.01 190.62 262.12 C 191.91 252.82 192.65 243.44 194.19 234.17 C 197.82 215.23 202.79 196.49 209.70 178.48 C 213.90 169.27 218.10 159.67 225.43 152.47 C 234.28 144.12 245.76 139.48 256.83 134.87 C 262.78 132.93 268.47 129.35 274.89 129.52 C 277.76 133.69 279.13 138.59 280.83 143.29 C 289.63 134.70 300.50 128.64 311.69 123.73 C 323.51 118.76 336.29 116.60 348.97 115.19 C 361.76 114.72 374.64 115.51 387.23 117.89 C 394.98 102.34 405.16 87.89 417.89 75.99 C 423.72 70.08 430.28 64.70 437.89 61.24 M 345.57 118.96 C 333.63 120.77 321.60 122.93 310.35 127.49 C 303.13 130.48 296.48 134.64 289.97 138.91 C 286.90 141.27 283.83 143.79 281.45 146.85 C 286.31 167.51 288.69 188.75 289.17 209.96 C 288.66 224.69 288.95 239.43 288.21 254.15 C 286.68 269.57 284.20 284.89 281.06 300.06 C 280.45 301.48 281.56 302.64 282.50 303.52 C 287.09 308.06 292.46 311.70 298.01 314.96 C 296.55 315.12 295.13 314.62 293.74 314.27 C 295.91 324.55 294.63 335.47 290.33 345.03 C 290.43 348.64 291.53 352.14 292.34 355.64 C 293.89 353.34 296.05 350.67 299.08 350.78 C 303.71 351.67 306.20 356.32 307.49 360.45 C 308.32 364.22 308.59 368.82 305.72 371.84 C 304.19 373.83 301.46 373.31 299.27 373.54 C 305.99 385.45 316.38 395.49 329.04 400.88 C 336.30 404.28 344.31 405.67 352.19 406.78 C 353.94 404.97 355.85 403.07 358.42 402.58 C 361.47 401.84 364.00 405.68 366.99 404.05 C 374.34 401.08 380.45 395.47 384.97 389.05 C 387.78 385.01 388.36 380.08 389.80 375.50 C 392.23 369.58 394.29 363.32 398.55 358.40 C 395.11 358.03 391.01 358.39 388.45 355.62 C 383.35 350.62 379.07 344.80 373.55 340.23 C 370.20 337.17 365.98 335.23 362.73 332.08 C 371.81 335.55 379.09 342.42 385.62 349.43 C 387.83 351.71 389.70 354.96 393.10 355.51 C 398.97 356.21 404.90 355.54 410.74 354.76 C 408.94 350.89 406.95 347.12 404.73 343.48 C 398.55 343.27 394.94 337.92 391.23 333.76 C 384.57 326.23 379.31 317.62 373.93 309.16 C 368.04 298.69 363.10 287.30 354.37 278.79 C 352.21 279.80 350.07 280.88 347.86 281.77 C 350.06 276.93 356.45 276.37 361.09 277.11 C 364.60 277.93 367.86 276.20 371.17 275.36 C 369.45 278.91 365.56 279.60 362.02 279.35 C 367.08 283.44 368.56 290.29 373.53 294.48 C 383.27 302.99 396.20 307.26 409.01 307.89 C 417.35 308.44 424.54 303.48 431.41 299.46 C 434.31 297.76 436.80 295.23 440.04 294.15 C 444.42 295.01 447.96 298.13 452.09 299.74 C 471.45 285.84 481.88 260.66 477.82 237.16 C 477.03 234.08 476.07 230.44 472.73 229.24 C 466.00 226.66 459.05 224.43 451.87 223.57 C 446.58 224.16 441.13 225.77 435.85 224.29 C 430.41 222.73 427.24 217.31 425.91 212.15 C 423.16 200.96 423.24 189.37 422.54 177.94 C 421.70 166.32 422.10 154.52 419.09 143.16 C 419.52 143.26 420.40 143.45 420.84 143.55 C 422.47 137.17 425.28 130.68 430.96 126.91 C 424.59 127.04 418.28 126.04 412.03 124.91 C 390.16 120.86 367.90 116.55 345.57 118.96 M 270.56 131.69 C 264.27 133.70 258.59 137.17 252.43 139.49 C 242.14 144.81 230.25 148.51 222.91 158.04 C 210.70 175.15 205.48 195.91 200.62 216.05 C 197.19 229.50 195.37 243.30 194.10 257.11 C 193.48 262.99 192.07 269.00 193.51 274.87 C 196.13 279.59 200.25 283.19 203.63 287.34 C 217.44 302.55 236.05 312.35 255.03 319.55 C 260.65 321.39 265.77 324.41 271.06 327.01 C 273.44 321.88 275.25 316.46 276.24 310.89 C 280.06 293.77 283.13 276.49 285.37 259.09 C 286.83 247.46 286.55 235.72 287.09 224.03 C 287.76 193.38 284.35 162.41 274.74 133.21 C 274.44 130.92 272.29 130.98 270.56 131.69 M 426.52 141.53 C 424.40 144.45 421.45 147.59 422.18 151.51 C 423.09 157.80 423.62 164.13 423.91 170.48 C 427.95 167.62 433.43 164.25 438.36 167.01 C 435.20 167.45 431.88 167.55 429.02 169.12 C 426.76 170.37 423.86 171.86 424.17 174.91 C 428.00 171.38 432.72 168.48 438.08 168.37 C 442.55 167.90 447.69 170.35 449.21 174.75 C 447.61 174.26 446.04 173.73 444.49 173.16 C 444.00 173.61 443.52 174.06 443.05 174.52 C 436.65 170.37 429.00 175.23 424.47 180.01 C 424.47 183.66 424.72 187.30 424.88 190.95 C 427.81 189.76 430.93 188.42 434.17 189.30 C 440.01 190.19 444.17 195.24 446.25 200.46 C 448.56 207.32 448.56 215.12 445.47 221.74 C 447.84 220.90 450.32 220.67 452.82 220.59 C 456.38 214.74 457.91 207.61 456.68 200.83 C 455.96 191.31 451.59 182.07 444.32 175.81 C 444.90 175.43 445.48 175.06 446.07 174.69 C 457.99 186.51 462.26 206.19 454.51 221.37 C 461.10 222.65 467.64 224.50 473.80 227.20 C 478.80 229.39 479.86 235.31 480.73 240.10 C 481.99 252.52 480.39 265.46 474.47 276.59 C 469.06 286.41 462.14 296.14 451.99 301.44 C 448.88 300.82 446.14 299.11 443.57 297.34 C 441.67 299.28 440.03 301.50 439.11 304.08 C 436.83 309.99 434.75 315.98 433.05 322.08 C 435.41 324.21 437.70 326.43 439.99 328.65 C 446.63 321.15 453.40 313.65 461.20 307.33 C 470.86 301.01 477.50 291.13 482.53 280.94 C 487.64 270.75 488.98 259.24 489.60 248.01 C 489.77 241.15 490.18 233.28 485.23 227.82 C 479.08 221.96 470.82 218.99 464.36 213.57 C 459.91 207.76 460.34 199.93 460.67 193.00 C 461.61 182.04 461.64 171.03 461.16 160.05 C 460.60 155.27 460.72 150.07 457.76 146.00 C 453.49 139.98 447.47 134.70 439.99 133.41 C 434.23 133.00 429.76 137.30 426.52 141.53 M 434.61 198.03 C 434.27 200.39 436.67 200.75 438.44 200.77 C 438.89 199.35 440.05 197.65 438.60 196.38 C 437.34 194.50 433.86 195.50 434.61 198.03 M 433.44 300.40 C 427.11 305.27 419.68 308.64 411.81 310.02 C 413.00 311.38 414.77 311.84 416.43 312.36 C 421.93 313.96 426.89 317.02 431.31 320.62 C 433.84 312.05 436.43 303.26 441.90 296.03 C 438.50 296.02 436.06 298.62 433.44 300.40 M 381.05 317.55 C 384.71 322.63 388.17 327.89 392.40 332.54 C 395.69 336.04 398.62 340.21 403.26 342.06 C 400.86 337.55 397.39 333.61 392.95 331.04 C 394.60 331.19 396.29 331.47 397.56 332.65 C 409.13 342.20 413.13 357.38 422.18 368.87 C 426.53 373.87 434.35 377.55 440.56 373.66 C 446.36 370.82 447.83 363.92 448.08 358.03 C 448.09 350.03 445.69 342.13 441.88 335.14 C 436.76 326.06 427.98 319.79 418.87 315.14 C 414.21 312.66 408.67 312.94 403.89 314.93 C 409.63 319.31 415.50 323.52 421.28 327.84 C 426.00 331.27 429.40 337.07 428.59 343.04 C 426.86 339.52 426.34 335.33 423.51 332.43 C 419.29 327.90 413.81 324.90 409.11 320.95 C 404.44 317.97 399.72 314.37 394.01 313.87 C 389.45 313.74 384.83 314.96 381.05 317.55 M 286.87 340.01 C 286.02 347.66 288.04 355.27 290.47 362.45 C 295.80 374.88 302.35 387.45 313.37 395.78 C 325.63 405.50 341.39 411.18 357.12 409.93 C 358.53 409.57 359.84 410.28 361.02 410.94 C 350.54 412.59 339.80 410.60 329.94 406.96 C 313.76 400.60 300.64 387.56 293.29 371.90 C 288.54 363.49 286.43 353.94 285.03 344.47 C 280.39 356.48 283.10 370.08 288.78 381.26 C 293.36 390.44 298.38 399.90 306.69 406.26 C 312.28 411.35 318.70 415.67 325.97 417.94 C 338.40 422.99 352.48 423.76 365.46 420.47 C 365.43 415.74 363.23 411.53 360.08 408.14 C 346.29 409.80 332.13 405.89 320.43 398.60 C 302.81 386.86 290.83 367.06 288.36 346.05 C 287.95 342.98 288.38 339.78 289.70 336.97 C 290.83 335.00 292.17 333.12 292.82 330.91 C 289.26 332.41 287.47 336.40 286.87 340.01 M 247.94 351.45 C 240.97 351.29 234.08 349.45 227.10 350.27 C 215.49 351.69 204.37 356.21 194.73 362.80 C 183.47 370.51 172.27 379.32 166.00 391.77 C 168.00 391.92 170.14 391.82 171.95 392.85 C 175.17 397.20 172.66 402.55 170.75 406.86 C 168.50 411.60 164.28 416.90 158.36 415.85 C 155.82 433.54 151.16 450.83 146.06 467.93 C 142.83 477.77 138.31 487.14 133.05 496.06 C 131.13 499.03 128.42 501.37 126.18 504.09 C 120.88 510.34 113.94 514.82 107.10 519.20 C 104.20 520.91 102.74 524.07 101.47 527.05 C 97.42 537.58 95.88 548.82 94.39 559.93 C 93.18 569.92 93.65 579.99 93.30 590.02 C 93.44 600.06 93.12 610.17 94.73 620.11 C 95.92 628.49 97.30 636.86 99.51 645.04 C 100.22 647.61 100.67 650.38 102.32 652.58 C 102.35 654.20 102.54 655.96 104.04 656.94 C 110.44 662.20 118.93 664.29 127.04 664.74 C 131.71 664.61 138.40 664.62 139.94 659.05 C 141.93 648.30 142.31 636.32 136.50 626.59 C 135.34 624.26 132.39 623.23 129.96 623.91 C 125.56 625.02 121.30 626.64 116.85 627.57 C 117.35 626.64 117.95 625.73 119.06 625.56 C 122.36 624.45 125.67 623.38 129.01 622.44 C 132.34 621.45 136.34 622.67 138.17 625.72 C 144.56 634.92 144.73 646.97 142.40 657.56 C 141.75 660.81 139.74 663.56 137.08 665.50 C 143.01 665.98 149.35 665.57 154.62 662.58 C 159.49 658.51 160.13 651.73 161.31 645.92 C 162.54 635.81 160.76 625.27 155.84 616.32 C 154.81 614.74 153.14 613.00 151.06 613.58 C 146.46 614.60 142.43 617.17 138.24 619.21 C 136.93 619.99 135.42 620.01 133.98 619.62 C 139.36 617.12 144.39 613.85 150.06 612.02 C 151.37 610.28 153.31 609.42 155.40 609.03 C 150.84 599.02 151.59 587.75 152.51 577.10 C 153.87 569.03 155.33 560.71 159.81 553.70 C 157.60 554.87 155.39 556.15 152.92 556.73 C 155.43 553.81 159.06 552.31 162.19 550.20 C 174.00 541.91 185.69 533.11 194.78 521.78 C 197.04 518.67 198.47 514.93 198.66 511.08 C 199.17 501.05 198.54 491.01 199.14 480.98 C 199.65 468.61 199.06 456.16 200.55 443.84 C 200.51 442.48 201.40 441.51 202.41 440.75 C 201.83 449.02 201.80 457.30 201.50 465.58 C 206.43 464.80 205.61 472.75 201.45 472.95 C 200.92 488.27 203.28 503.81 199.86 518.91 C 202.82 525.63 207.44 531.52 212.45 536.83 C 211.68 532.69 210.74 528.14 213.06 524.30 C 221.47 510.43 225.85 494.23 225.90 478.03 C 222.45 476.38 219.13 473.06 219.79 468.91 C 220.30 465.52 223.43 463.51 226.50 462.70 C 226.48 461.55 226.46 460.40 226.45 459.26 C 226.76 459.24 227.37 459.21 227.68 459.19 C 229.18 472.05 228.32 485.13 226.23 497.88 C 224.24 506.61 221.36 515.25 216.81 522.98 C 215.40 525.44 213.02 527.98 214.09 531.05 C 216.30 542.89 217.29 554.90 217.37 566.94 C 218.39 578.31 217.99 589.75 219.18 601.11 C 220.06 625.66 222.87 650.51 218.35 674.89 C 217.92 678.70 215.84 683.00 218.39 686.51 C 225.23 696.52 230.53 707.47 235.34 718.56 C 240.26 724.48 248.74 725.57 255.98 725.92 C 258.58 725.67 262.50 726.75 263.69 723.59 C 266.90 716.83 265.51 709.01 264.12 701.97 C 262.05 695.70 260.11 688.26 254.03 684.70 C 250.33 684.93 246.53 687.35 242.90 685.59 C 246.89 684.59 250.88 683.21 254.98 682.95 C 258.89 684.61 260.59 688.93 262.72 692.32 C 267.30 702.10 269.58 713.87 265.77 724.27 C 272.12 728.30 280.91 729.24 287.63 725.65 C 291.47 722.33 291.53 716.67 292.08 712.01 C 292.42 699.39 288.95 686.58 281.97 676.03 C 280.61 673.60 277.60 673.20 275.08 673.09 C 268.86 673.40 263.83 678.54 257.45 678.00 C 261.68 675.53 266.32 673.81 270.80 671.81 C 273.94 670.31 277.51 670.74 280.54 672.27 C 282.06 671.49 283.60 670.77 285.07 669.91 C 282.02 665.00 279.01 659.84 278.69 653.90 C 278.33 641.11 280.69 628.46 282.85 615.92 C 286.70 597.35 290.30 578.72 292.87 559.93 C 294.84 548.98 293.71 537.74 291.07 527.01 C 291.66 527.17 292.83 527.48 293.42 527.64 C 302.42 508.91 308.23 488.61 310.44 467.94 C 311.11 462.67 310.23 457.41 309.18 452.26 C 303.43 451.03 297.56 450.49 291.82 449.19 C 292.80 448.63 293.90 448.33 295.05 448.51 C 299.42 448.63 303.79 449.04 308.16 449.38 C 306.23 441.83 304.22 434.29 302.07 426.80 C 298.77 416.99 296.67 406.85 293.75 396.93 C 292.83 392.24 289.59 388.55 287.79 384.22 C 285.67 379.36 283.09 374.66 281.79 369.49 C 279.98 362.31 279.50 354.66 281.38 347.44 C 270.69 351.12 259.19 352.39 247.94 351.45 M 393.21 378.04 C 392.76 378.15 391.88 378.36 391.44 378.47 L 391.54 375.81 C 389.83 379.57 388.97 383.63 387.44 387.46 C 384.77 393.08 380.20 397.56 375.29 401.28 C 372.27 403.60 368.54 404.73 365.51 407.03 C 369.51 407.81 372.85 404.94 375.94 402.87 C 383.85 397.18 390.72 388.55 391.00 378.44 C 391.51 379.00 392.02 379.58 392.54 380.15 C 389.88 393.07 380.30 404.18 367.93 408.67 C 369.39 412.00 370.26 415.53 370.73 419.13 C 379.31 415.17 387.07 408.90 391.32 400.32 C 396.07 390.66 399.44 379.13 395.28 368.64 C 392.87 371.17 393.48 374.84 393.21 378.04 M 391.15 404.48 C 390.33 405.88 389.03 407.16 389.01 408.89 C 388.32 418.58 390.01 428.27 389.43 437.96 C 388.82 451.93 389.60 466.09 386.50 479.82 C 382.42 500.35 372.47 519.78 357.80 534.75 C 358.82 539.18 358.09 543.74 356.76 548.02 C 355.53 551.44 356.46 555.06 357.28 558.46 C 360.30 569.73 363.15 581.04 366.79 592.13 C 372.31 608.60 377.31 625.38 385.40 640.84 C 388.17 646.00 390.18 651.61 393.74 656.33 C 396.69 659.56 401.08 660.88 404.42 663.65 C 411.37 669.47 417.31 676.63 421.11 684.92 C 422.46 687.55 423.40 690.62 425.88 692.45 C 429.69 695.36 434.43 696.64 438.99 697.87 C 446.89 699.56 455.02 701.20 463.10 699.80 C 466.77 699.18 471.34 698.79 473.17 694.99 C 479.03 683.21 474.27 667.26 463.03 660.53 C 457.36 660.39 452.47 664.72 446.68 664.71 C 448.62 662.32 451.96 662.30 454.57 661.02 C 457.29 660.07 460.03 657.89 463.05 658.80 C 468.06 659.81 471.06 664.44 473.50 668.52 C 478.98 676.74 478.77 687.70 474.91 696.54 C 479.48 697.03 485.01 697.20 488.43 693.59 C 493.82 684.59 494.16 673.10 490.46 663.41 C 488.33 655.95 483.13 649.23 476.03 645.96 C 469.02 648.07 462.95 652.84 455.58 653.76 C 457.34 651.84 460.00 651.34 462.24 650.19 C 466.79 648.21 470.88 644.80 476.00 644.44 C 482.25 645.06 486.50 650.36 489.81 655.18 C 496.01 666.21 497.16 680.03 492.13 691.75 C 495.61 691.35 499.39 690.04 500.78 686.49 C 505.79 673.71 503.30 659.04 496.84 647.25 C 494.17 643.74 491.64 639.45 487.14 638.15 C 482.18 636.61 476.91 638.08 472.56 640.63 C 468.21 643.19 463.07 644.56 458.03 644.15 C 453.95 643.28 450.27 640.77 447.78 637.46 C 439.95 622.51 439.45 605.34 436.15 589.11 C 432.47 567.57 430.45 545.56 423.37 524.76 C 422.34 527.89 422.03 531.27 420.45 534.21 C 420.24 525.96 422.85 517.96 424.00 509.84 C 422.51 509.39 421.17 508.55 420.85 506.93 C 418.65 500.92 419.07 494.15 421.10 488.16 C 421.97 485.21 424.32 482.98 427.22 482.06 C 427.28 468.58 424.34 455.35 420.02 442.65 C 418.19 443.21 415.93 444.37 414.18 442.99 C 408.67 438.81 406.50 431.60 406.16 424.95 C 405.95 421.90 407.61 419.11 410.32 417.76 C 406.73 407.77 402.31 398.11 398.62 388.16 C 396.87 393.90 394.56 399.51 391.15 404.48 M 296.02 398.09 C 300.09 415.45 306.50 432.18 310.58 449.54 C 319.42 450.47 328.26 451.59 337.15 451.87 C 332.23 447.09 327.27 442.36 322.27 437.66 C 318.57 433.95 315.08 430.00 311.01 426.68 C 309.36 425.32 307.61 423.96 306.81 421.92 C 308.67 422.64 310.37 423.72 311.97 424.91 C 321.73 432.12 331.17 439.75 340.86 447.06 C 340.43 442.91 340.35 438.72 339.53 434.63 C 338.95 431.34 337.92 428.08 338.21 424.71 C 340.74 428.12 341.91 432.28 343.37 436.21 C 345.23 431.98 348.66 428.85 352.40 426.28 C 353.47 426.05 354.54 425.84 355.61 425.65 C 355.47 425.45 355.18 425.06 355.04 424.87 C 354.53 424.94 353.51 425.08 353.00 425.15 C 340.53 424.57 327.86 422.31 316.83 416.20 C 308.47 412.08 301.68 405.38 296.02 398.09 M 355.05 406.49 C 357.36 406.88 360.21 406.11 361.99 408.02 C 366.70 413.04 368.13 420.98 365.27 427.28 C 364.26 429.65 361.97 430.95 359.80 432.09 C 362.22 432.02 365.03 431.80 366.32 429.39 C 370.77 422.22 369.36 411.61 362.99 406.01 C 360.55 403.79 357.45 404.89 355.05 406.49 M 370.52 421.26 C 370.20 423.37 369.81 425.48 369.37 427.58 C 372.46 430.13 375.63 432.96 376.91 436.90 C 379.37 443.06 378.48 450.75 373.62 455.52 C 369.80 459.84 364.17 462.07 358.56 462.85 C 362.67 467.55 366.96 472.07 371.42 476.43 C 367.06 475.33 363.92 471.86 360.18 469.57 C 360.34 468.69 361.27 467.65 360.45 466.85 C 357.27 462.64 352.76 459.57 349.96 455.06 C 351.50 452.61 354.22 451.34 356.35 449.51 C 353.34 449.85 350.37 450.83 347.33 450.72 C 343.50 446.24 343.55 439.91 341.27 434.67 C 341.49 439.40 342.05 444.12 341.80 448.87 C 334.20 445.21 328.49 438.66 321.26 434.40 C 326.94 441.22 334.72 446.10 340.03 453.23 C 330.19 453.21 320.40 451.83 310.59 451.35 C 311.71 451.56 313.96 451.96 315.09 452.16 C 313.90 452.69 312.69 453.14 311.46 453.53 C 314.08 460.75 313.45 468.54 312.30 475.98 C 309.11 494.78 304.08 513.66 294.19 530.13 C 294.20 531.97 294.97 533.68 295.35 535.47 C 297.28 544.03 296.45 552.88 295.67 561.53 C 305.19 560.27 314.54 557.84 323.50 554.38 C 331.99 551.31 339.40 545.95 346.51 540.50 C 350.79 537.15 355.53 534.32 359.21 530.24 C 375.49 512.01 385.17 488.21 387.15 463.91 C 387.33 445.86 388.83 427.80 387.44 409.78 C 382.53 414.56 376.93 418.73 370.52 421.26 M 353.42 430.40 C 348.65 435.18 345.15 442.61 347.84 449.28 C 353.82 449.31 359.15 446.45 364.76 444.84 C 360.54 448.78 355.29 451.42 350.82 455.06 C 352.55 456.65 354.11 458.49 356.12 459.75 C 365.02 461.74 374.66 454.92 375.99 445.96 C 377.38 439.54 373.66 433.18 368.78 429.27 C 366.44 431.66 364.40 434.31 362.18 436.81 C 361.05 435.71 359.09 434.94 359.11 433.09 C 358.29 430.11 361.92 429.12 363.36 427.20 C 359.80 427.01 355.96 427.70 353.42 430.40 M 345.48 442.29 C 346.44 437.46 349.32 433.49 352.15 429.61 C 348.05 432.15 343.22 437.16 345.48 442.29 M 320.11 433.23 C 320.26 433.39 320.56 433.70 320.71 433.86 C 320.56 433.70 320.26 433.39 320.11 433.23 C 319.50 432.57 319.50 432.57 320.11 433.23 M 320.71 433.86 C 320.85 434.00 321.12 434.27 321.26 434.40 C 321.12 434.27 320.85 434.00 320.71 433.86 M 295.40 563.64 C 292.36 583.83 287.59 603.71 284.34 623.87 C 288.31 629.53 291.05 636.04 292.20 642.86 C 292.70 645.03 292.94 647.64 295.00 648.97 C 299.44 651.87 304.67 653.27 309.83 654.28 C 314.49 655.01 319.20 656.20 323.95 655.61 C 325.96 655.43 327.07 653.50 327.98 651.95 C 332.36 643.71 331.93 633.72 328.99 625.09 C 327.60 621.59 325.78 618.05 322.85 615.60 C 315.89 614.41 311.14 620.58 305.81 623.87 C 307.17 620.43 310.54 618.41 313.32 616.22 C 316.45 613.85 321.28 612.53 324.55 615.36 C 329.15 619.26 331.56 625.23 332.46 631.08 C 334.20 639.34 332.77 648.36 327.97 655.38 C 333.28 655.61 340.01 657.45 344.17 653.14 C 349.33 643.77 351.27 632.27 348.07 621.92 C 346.45 616.82 344.85 611.11 340.69 607.49 C 335.14 606.05 329.93 609.58 324.99 611.64 C 327.25 607.84 332.11 606.93 335.97 605.51 C 331.86 598.87 329.92 591.25 327.46 583.93 C 325.12 575.47 323.31 566.82 322.67 558.06 C 313.71 560.44 304.78 563.65 295.40 563.64 M 343.47 606.96 C 347.60 612.52 350.37 619.13 351.13 626.02 C 352.71 635.35 350.05 644.80 346.26 653.28 C 349.26 652.65 353.81 653.57 355.24 650.08 C 362.44 638.25 363.79 621.89 355.83 610.11 C 352.71 606.89 347.78 605.84 343.47 606.96 M 152.61 611.70 C 158.40 614.39 160.60 620.71 162.34 626.38 C 165.31 638.41 165.08 652.24 157.88 662.78 C 162.94 662.54 169.05 662.86 172.68 658.65 C 178.94 649.79 177.89 638.30 176.89 628.09 C 175.21 621.70 173.64 614.12 167.85 610.13 C 163.06 606.96 157.50 610.72 152.61 611.70 M 358.91 610.93 C 359.95 613.81 361.46 616.52 362.26 619.50 C 364.73 630.05 362.31 641.24 357.16 650.62 C 359.31 649.48 362.20 648.58 362.93 645.93 C 366.04 637.21 367.22 627.60 365.27 618.48 C 364.61 615.04 362.13 612.23 358.91 610.93 M 173.97 613.52 C 175.39 617.17 177.23 620.66 178.38 624.42 C 180.37 631.09 179.96 638.14 179.82 645.02 C 179.74 650.07 177.57 654.72 175.31 659.13 C 177.91 658.76 180.69 658.55 182.94 657.04 C 184.87 654.29 185.93 651.04 187.02 647.89 C 190.02 639.60 188.40 630.40 185.45 622.34 C 183.66 617.42 179.11 614.17 173.97 613.52 M 495.28 641.95 C 505.35 653.88 506.46 670.78 503.05 685.45 C 508.72 679.87 507.93 671.13 507.49 663.86 C 506.34 655.49 503.46 645.97 495.28 641.95 M 281.89 673.21 C 286.00 677.79 288.91 683.33 290.78 689.17 C 294.01 700.31 295.99 712.42 292.03 723.65 C 298.07 724.50 305.63 723.79 308.73 717.68 C 313.77 706.70 313.09 693.64 308.70 682.55 C 307.07 677.79 303.97 673.03 299.01 671.32 C 293.31 669.66 287.31 671.28 281.89 673.21 M 308.29 676.64 C 315.67 689.86 315.98 706.28 309.91 720.04 C 311.88 719.59 314.04 719.00 315.16 717.14 C 321.32 708.77 320.62 697.50 317.98 687.97 C 316.62 682.97 313.18 678.57 308.29 676.64 Z" />
<path fill="#000000" opacity="1.00" d=" M 304.19 151.17 C 308.60 145.89 314.70 140.87 322.00 141.33 C 335.23 140.59 348.23 147.69 355.41 158.68 C 358.30 163.33 362.19 167.24 365.10 171.88 C 374.31 185.95 381.16 202.02 382.39 218.93 C 382.57 223.47 382.98 228.18 381.70 232.59 C 379.04 236.23 375.62 239.22 372.44 242.40 C 369.80 244.84 367.38 247.74 363.92 249.04 C 356.64 252.00 348.67 250.15 341.09 250.83 C 335.35 251.84 329.35 252.22 324.12 255.00 C 321.20 256.14 318.88 258.57 315.72 259.09 C 316.96 257.74 318.32 256.52 319.73 255.34 C 309.94 249.81 302.16 241.07 296.91 231.20 C 291.10 215.85 291.38 199.04 292.04 182.88 C 294.06 185.59 292.84 189.02 293.10 192.11 C 293.61 202.40 293.15 212.91 295.89 222.95 C 298.80 236.59 309.06 247.78 320.96 254.49 C 323.28 253.28 325.67 252.22 328.11 251.25 C 323.31 245.90 320.20 239.29 317.36 232.76 C 313.04 221.93 314.53 209.38 320.33 199.41 C 322.66 195.37 326.53 192.61 330.32 190.06 C 331.81 189.39 328.96 187.11 328.49 189.33 C 324.55 191.16 320.87 193.81 318.42 197.45 C 316.58 200.20 315.42 203.31 313.87 206.21 C 314.43 196.91 322.39 187.87 331.87 187.03 C 333.06 187.08 331.74 188.98 332.99 188.97 C 335.98 188.46 338.85 187.15 341.96 187.28 C 346.73 186.87 351.29 189.18 354.54 192.54 C 354.17 192.91 353.43 193.65 353.06 194.02 C 367.89 204.09 373.39 225.18 366.22 241.45 C 366.85 241.41 368.11 241.33 368.74 241.29 C 368.55 242.21 368.15 244.07 367.96 244.99 C 371.68 240.68 376.73 237.57 379.93 232.83 C 382.41 225.85 381.51 218.16 380.31 211.00 C 376.85 193.58 368.17 177.59 357.29 163.71 C 353.98 158.71 348.18 156.45 342.92 154.11 C 334.07 150.26 323.55 150.88 314.97 155.16 C 307.97 158.43 302.78 164.54 298.57 170.85 C 296.34 174.85 294.08 179.08 293.95 183.78 C 293.46 183.09 292.97 182.41 292.49 181.73 C 293.03 170.72 296.46 159.31 304.19 151.17 M 323.30 201.32 C 316.86 209.92 315.12 221.81 318.86 231.88 C 321.21 238.76 324.41 245.57 329.58 250.80 C 331.01 250.40 332.45 250.01 333.89 249.63 C 329.96 246.58 326.89 242.48 325.18 237.81 C 321.89 229.38 323.78 218.81 330.63 212.69 C 334.04 209.88 338.48 207.90 342.97 208.76 C 351.41 210.40 358.60 217.41 360.32 225.85 C 362.13 233.69 360.75 242.33 356.03 248.93 C 359.18 247.81 362.55 246.41 364.40 243.44 C 365.70 240.73 366.55 237.83 367.25 234.92 C 370.39 223.00 366.40 209.88 358.31 200.80 C 354.22 196.04 348.52 191.94 341.98 192.07 C 334.85 192.19 327.54 195.47 323.30 201.32 M 345.49 213.64 C 341.86 214.95 344.74 221.61 348.06 219.22 C 351.14 217.52 348.62 212.64 345.49 213.64 Z" />
<path fill="#000000" opacity="1.00" d=" M 404.26 221.40 C 411.71 218.94 419.92 217.87 427.39 220.86 C 425.27 221.90 422.95 220.90 420.78 220.63 C 414.90 219.69 408.97 220.98 403.34 222.64 C 403.57 222.33 404.03 221.71 404.26 221.40 Z" />
<path fill="#000000" opacity="1.00" d=" M 405.07 227.56 C 413.35 225.06 422.07 223.75 430.73 224.44 C 431.01 224.78 431.57 225.47 431.85 225.82 C 422.15 225.46 412.49 227.14 403.18 229.78 C 399.85 230.75 396.97 232.71 394.10 234.59 C 396.73 230.98 400.94 228.95 405.07 227.56 Z" />
<path fill="#000000" opacity="1.00" d=" M 443.95 230.34 C 451.44 229.39 460.02 228.65 466.42 233.44 C 468.83 237.40 468.22 242.47 467.59 246.87 C 465.83 259.74 455.56 269.42 444.94 275.79 C 434.39 273.97 424.29 269.67 415.72 263.26 C 411.78 260.22 409.39 255.66 407.97 250.98 C 410.37 244.26 414.39 237.27 421.49 234.76 C 428.77 232.41 436.42 231.52 443.95 230.34 M 421.98 236.32 C 416.19 237.72 413.02 243.26 410.54 248.18 C 408.01 252.77 412.29 257.53 415.37 260.67 C 416.89 253.81 420.72 247.50 426.16 243.04 C 429.19 240.52 433.35 240.43 437.07 239.85 C 446.33 239.28 455.27 236.54 464.02 233.60 C 459.35 231.41 454.11 231.06 449.06 231.63 C 439.94 232.55 430.85 234.02 421.98 236.32 Z" />
<path fill="#000000" opacity="1.00" d=" M 301.92 336.04 C 303.30 333.72 306.37 334.20 308.09 335.86 C 310.86 338.64 312.14 342.87 310.51 346.59 C 304.39 349.68 298.85 341.12 301.92 336.04 Z" />
<path fill="#000000" opacity="1.00" d=" M 247.25 362.01 C 251.52 359.13 256.90 357.95 261.99 358.69 C 263.83 358.75 264.53 360.76 265.57 361.94 C 261.47 370.49 252.84 375.22 245.88 381.13 C 243.34 380.54 241.04 378.92 240.93 376.11 C 240.83 370.86 242.84 365.18 247.25 362.01 Z" />
<path fill="#000000" opacity="1.00" d=" M 215.54 422.76 C 218.57 420.40 223.20 422.75 224.41 426.00 C 226.32 432.69 220.84 437.97 218.90 443.91 C 217.20 447.13 217.53 452.11 213.62 453.62 C 211.66 454.11 208.92 454.42 207.62 452.50 C 204.72 449.09 204.42 444.23 204.97 439.98 C 205.65 433.04 209.46 426.34 215.54 422.76 Z" />
<path fill="#000000" opacity="1.00" d=" M 276.87 423.58 C 278.71 422.31 281.24 422.48 282.72 424.23 C 286.06 428.05 288.52 432.85 289.03 437.96 C 289.51 442.67 286.99 447.94 282.14 449.22 C 276.64 445.73 272.94 439.56 272.34 433.09 C 272.52 429.51 274.00 425.82 276.87 423.58 Z" />
<path fill="#000000" opacity="1.00" d=" M 314.05 453.95 C 314.79 453.44 315.54 452.94 316.30 452.45 C 320.56 453.59 324.89 454.37 329.17 455.44 C 333.23 456.46 337.64 456.59 341.33 458.77 C 342.35 461.35 341.00 464.20 340.95 466.84 C 340.49 466.13 340.05 465.41 339.61 464.70 C 339.98 462.86 340.30 461.02 340.60 459.18 C 331.73 457.51 322.83 456.02 314.05 453.95 Z" />
<path fill="#000000" opacity="1.00" d=" M 289.58 456.83 C 290.24 456.48 291.57 455.76 292.23 455.41 C 296.80 456.93 297.05 465.24 291.93 465.96 C 287.46 465.42 288.12 459.81 289.58 456.83 Z" />
<path fill="#000000" opacity="1.00" d=" M 344.57 462.20 C 349.95 470.35 353.66 479.40 357.86 488.17 C 356.53 478.92 351.68 470.58 349.94 461.42 C 352.83 462.74 355.54 464.39 358.20 466.12 C 358.40 466.98 358.64 467.84 358.92 468.69 C 356.69 466.80 354.23 465.22 351.70 463.81 C 356.52 476.69 360.44 489.88 364.46 503.02 C 360.71 498.26 358.91 492.38 355.97 487.15 C 352.11 479.79 348.92 472.11 344.78 464.89 C 342.61 468.59 340.76 472.46 339.27 476.48 C 338.77 477.97 337.90 479.26 336.57 480.16 C 337.30 475.49 339.04 470.98 339.04 466.21 C 339.67 467.20 340.28 468.22 340.88 469.25 C 342.07 466.88 343.28 464.52 344.57 462.20 Z" />
<path fill="#000000" opacity="1.00" d=" M 282.36 467.45 C 284.40 466.54 287.52 466.21 288.39 468.84 C 291.01 475.57 289.14 484.86 282.26 488.31 C 280.22 489.63 277.46 490.37 275.27 489.00 C 271.70 485.95 271.58 480.69 272.71 476.49 C 274.04 471.98 278.17 469.07 282.36 467.45 Z" />
<path fill="#000000" opacity="1.00" d=" M 203.84 480.95 C 203.84 477.52 204.08 472.83 207.94 471.55 C 212.00 471.21 214.37 475.31 214.65 478.85 C 215.00 484.36 215.10 489.92 216.29 495.34 C 215.28 497.49 213.17 499.69 210.61 498.32 C 205.36 494.25 204.37 487.14 203.84 480.95 Z" />
<path fill="#000000" opacity="1.00" d=" M 182.35 497.34 C 183.81 496.33 185.96 496.55 186.98 498.08 C 189.89 502.61 188.28 508.35 185.45 512.49 C 183.09 517.00 178.06 520.42 172.82 519.19 C 167.92 517.38 168.32 510.61 170.97 507.04 C 174.05 503.09 178.31 500.24 182.35 497.34 Z" />
<path fill="#000000" opacity="1.00" d=" M 267.17 507.22 C 269.00 505.74 271.03 507.51 272.05 509.06 C 273.23 512.22 272.04 516.33 269.01 518.01 C 263.29 518.37 262.49 509.29 267.17 507.22 Z" />
<path fill="#000000" opacity="1.00" d=" M 505.09 777.25 C 505.54 777.11 506.45 776.82 506.90 776.68 C 507.07 779.78 507.03 782.90 507.01 786.02 C 506.53 786.00 505.57 785.97 505.09 785.95 C 505.03 783.05 505.04 780.15 505.09 777.25 Z" />
<path fill="#000000" opacity="1.00" d=" M 419.30 779.64 C 419.33 778.03 420.07 777.00 421.50 776.56 C 421.47 779.72 421.16 782.88 421.23 786.05 C 419.80 786.03 418.37 786.02 416.95 786.02 C 416.42 785.69 415.37 785.02 414.85 784.68 C 414.36 781.76 416.33 779.49 419.30 779.64 M 416.95 782.19 C 415.65 783.72 418.42 785.14 419.39 783.73 C 420.57 782.25 417.91 780.90 416.95 782.19 Z" />
<path fill="#000000" opacity="1.00" d=" M 520.91 777.15 C 522.50 776.64 523.05 777.21 522.56 778.84 C 520.94 779.37 520.39 778.80 520.91 777.15 Z" />
<path fill="#000000" opacity="1.00" d=" M 448.06 777.07 L 450.02 777.07 C 450.02 777.84 450.01 779.38 450.01 780.16 C 450.82 780.08 452.43 779.93 453.24 779.85 C 453.95 781.95 454.31 784.14 454.22 786.37 C 451.37 786.40 452.10 783.47 451.68 781.59 C 450.46 782.76 449.78 784.21 449.74 785.95 L 447.96 786.08 C 448.03 783.07 448.06 780.07 448.06 777.07 Z" />
<path fill="#000000" opacity="1.00" d=" M 441.62 779.98 C 443.34 779.98 445.08 779.98 446.81 780.04 C 447.08 782.17 447.27 784.31 447.37 786.47 C 444.72 786.31 445.38 783.46 444.85 781.73 C 443.95 783.44 443.70 785.79 441.66 786.64 C 441.51 784.41 441.55 782.19 441.62 779.98 Z" />
<path fill="#000000" opacity="1.00" d=" M 457.43 779.92 C 459.62 779.44 460.70 782.08 460.17 783.88 C 459.84 786.63 454.99 786.99 454.66 784.01 C 453.86 782.13 455.32 779.78 457.43 779.92 M 456.17 782.26 C 454.82 783.76 457.58 785.20 458.51 783.73 C 459.77 782.21 457.10 780.81 456.17 782.26 Z" />
<path fill="#000000" opacity="1.00" d=" M 461.08 781.08 C 462.31 779.66 464.28 780.01 465.95 779.76 C 465.99 780.32 466.08 781.44 466.12 782.00 L 463.31 782.00 C 464.55 782.84 465.83 783.64 467.08 784.49 C 467.03 783.36 466.92 781.10 466.87 779.97 C 468.60 779.97 470.34 779.98 472.09 780.04 C 472.21 781.59 473.44 783.43 472.36 784.88 C 470.79 786.06 467.99 786.03 468.74 788.86 L 467.15 789.02 C 467.04 787.32 466.92 785.79 466.46 784.20 C 465.62 787.00 461.19 786.76 460.50 784.00 L 463.60 784.00 C 462.67 783.10 461.19 782.56 461.08 781.08 M 468.60 782.24 C 467.47 783.70 470.02 785.20 470.98 783.77 C 472.21 782.25 469.54 780.72 468.60 782.24 Z" />
<path fill="#000000" opacity="1.00" d=" M 540.95 779.85 C 542.74 779.93 544.53 780.00 546.33 780.15 C 546.19 780.80 545.91 782.09 545.77 782.74 C 545.12 782.78 543.83 782.86 543.18 782.90 C 542.72 784.27 542.76 786.05 541.03 786.50 C 540.91 784.27 540.90 782.06 540.95 779.85 Z" />
<path fill="#000000" opacity="1.00" d=" M 384.77 780.16 C 385.29 780.10 386.31 779.99 386.83 779.93 C 387.01 780.94 387.20 781.97 387.39 783.01 C 387.88 781.61 388.20 780.00 389.81 779.50 C 389.87 780.27 390.00 781.82 390.07 782.59 C 390.95 781.75 391.21 779.39 392.86 780.17 C 393.55 782.20 392.10 784.40 391.00 786.07 C 389.76 786.29 389.26 784.94 388.45 784.33 C 388.17 785.76 387.45 786.26 386.27 785.81 C 385.54 783.99 385.20 782.05 384.77 780.16 Z" />
<path fill="#000000" opacity="1.00" d=" M 393.98 780.09 L 394.56 779.54 C 394.86 780.40 395.45 782.12 395.74 782.99 C 396.04 781.81 396.35 780.59 396.72 779.44 C 397.94 780.15 398.62 781.26 398.73 782.77 C 399.42 781.54 399.78 779.88 401.39 779.50 C 400.83 781.64 401.17 785.50 398.41 786.09 C 398.04 785.64 397.30 784.74 396.92 784.29 C 396.60 784.74 395.97 785.65 395.65 786.10 C 393.29 785.69 393.16 781.90 393.98 780.09 Z" />
<path fill="#000000" opacity="1.00" d=" M 401.70 779.49 C 403.06 780.07 403.77 781.14 403.84 782.72 C 404.31 781.61 404.78 780.46 405.31 779.41 C 406.19 780.37 406.88 781.51 407.44 782.69 C 407.43 780.92 408.24 779.88 409.86 779.60 C 409.05 781.77 409.37 786.28 406.13 786.07 C 406.01 785.41 405.76 784.07 405.64 783.41 C 405.04 784.70 404.20 785.86 402.95 786.61 C 402.15 784.31 401.67 781.91 401.70 779.49 Z" />
<path fill="#000000" opacity="1.00" d=" M 423.79 779.76 C 425.77 779.72 428.72 779.99 428.03 782.79 C 429.23 787.21 423.36 786.58 421.58 784.11 C 422.23 782.61 422.97 781.17 423.79 779.76 Z" />
<path fill="#000000" opacity="1.00" d=" M 428.47 782.30 C 428.83 781.67 429.55 780.42 429.90 779.80 C 431.68 779.73 433.33 780.15 434.84 781.04 C 432.82 781.96 430.72 783.57 428.47 782.30 Z" />
<path fill="#000000" opacity="1.00" d=" M 434.61 783.09 C 434.56 779.85 439.35 778.67 440.94 781.40 C 440.02 783.52 437.80 782.64 436.10 782.58 C 437.66 783.69 439.46 783.45 441.27 783.16 C 441.16 787.14 434.35 787.02 434.61 783.09 Z" />
<path fill="#000000" opacity="1.00" d=" M 473.26 784.18 C 471.66 780.25 480.12 777.34 479.19 782.85 C 478.36 782.61 476.68 782.13 475.85 781.89 C 475.62 782.38 475.18 783.37 474.96 783.87 C 476.73 784.15 480.08 782.45 480.00 785.73 C 480.00 783.81 479.98 781.91 479.97 780.00 C 481.62 780.00 483.27 779.99 484.94 779.99 C 485.00 780.79 485.12 782.39 485.18 783.19 C 484.14 782.88 483.10 782.57 482.08 782.27 C 481.88 783.49 481.69 784.71 481.52 785.95 C 478.84 785.36 474.47 787.55 473.26 784.18 Z" />
<path fill="#000000" opacity="1.00" d=" M 485.89 784.90 C 483.93 781.98 488.52 778.13 491.00 780.66 C 491.24 782.41 491.47 784.19 491.69 785.97 C 489.80 785.58 487.02 786.98 485.89 784.90 M 487.41 782.24 C 486.12 783.70 488.69 785.30 489.67 783.80 C 490.87 782.34 488.35 780.65 487.41 782.24 Z" />
<path fill="#000000" opacity="1.00" d=" M 492.18 782.38 C 492.88 779.46 496.54 779.25 498.20 781.49 C 496.54 782.01 494.35 781.86 493.60 783.78 C 494.77 783.88 497.13 784.09 498.30 784.19 C 496.95 787.52 490.80 786.04 492.18 782.38 Z" />
<path fill="#000000" opacity="1.00" d=" M 498.63 781.99 C 498.95 779.73 501.62 780.10 503.23 779.64 C 503.79 781.40 505.12 783.76 503.37 785.28 C 501.21 787.51 496.95 784.90 498.63 781.99 M 500.19 782.23 C 498.85 783.70 501.58 785.20 502.53 783.74 C 503.81 782.25 501.15 780.81 500.19 782.23 Z" />
<path fill="#000000" opacity="1.00" d=" M 508.07 780.99 C 509.64 780.26 511.29 779.86 513.02 779.78 C 513.18 781.37 514.62 783.41 513.17 784.83 C 511.93 787.26 507.28 785.98 507.73 783.03 C 508.63 783.32 510.42 783.90 511.32 784.19 C 511.53 783.67 511.94 782.62 512.15 782.10 C 510.45 783.05 509.27 781.82 508.07 780.99 Z" />
<path fill="#000000" opacity="1.00" d=" M 514.39 779.94 C 517.05 780.01 519.72 780.24 522.39 780.08 C 521.85 782.17 523.46 785.87 520.49 786.47 C 520.35 784.63 520.51 782.83 520.98 781.08 C 520.25 781.11 519.52 781.14 518.80 781.19 L 519.90 783.39 C 519.17 783.05 517.69 782.39 516.96 782.05 C 516.33 783.65 516.32 785.72 514.63 786.68 C 514.39 784.43 514.37 782.18 514.39 779.94 Z" />
<path fill="#000000" opacity="1.00" d=" M 523.60 779.89 C 525.38 779.93 527.17 779.96 528.96 780.14 L 529.56 780.36 L 529.79 780.74 L 529.81 781.04 C 529.01 782.74 527.61 783.02 525.91 782.55 C 525.42 784.03 525.61 785.99 523.80 786.64 C 523.63 784.38 523.59 782.13 523.60 779.89 Z" />
<path fill="#000000" opacity="1.00" d=" M 534.52 782.45 C 534.66 779.93 537.47 780.01 539.30 779.68 C 539.72 781.34 540.66 783.08 539.86 784.80 C 538.97 786.09 537.22 785.90 535.90 786.32 C 535.27 785.10 533.82 783.95 534.52 782.45 M 536.19 782.19 C 534.83 783.65 537.51 785.18 538.49 783.73 C 539.80 782.26 537.16 780.75 536.19 782.19 Z" />
<path fill="#000000" opacity="1.00" d=" M 546.63 783.02 C 546.06 779.97 550.07 779.42 552.13 780.29 C 552.84 782.55 551.93 785.01 552.02 787.36 C 550.72 789.00 548.78 789.23 546.81 789.15 C 546.63 788.67 546.26 787.73 546.08 787.26 C 547.51 787.04 548.96 786.88 550.40 786.67 C 548.60 786.05 545.86 785.61 546.63 783.02 M 548.20 782.28 C 546.80 783.82 549.65 785.12 550.56 783.65 C 551.93 782.10 549.10 780.85 548.20 782.28 Z" />
<path fill="#000000" opacity="1.00" d=" M 429.03 784.26 C 430.69 783.68 432.73 782.36 434.30 783.85 C 434.35 786.64 428.68 787.18 429.03 784.26 Z" />
<path fill="#000000" opacity="1.00" d=" M 411.21 784.19 C 412.20 782.63 414.54 784.46 413.53 785.89 C 412.54 787.45 410.11 785.61 411.21 784.19 Z" />
<path fill="#000000" opacity="1.00" d=" M 530.47 784.19 C 531.47 782.62 533.86 784.44 532.76 785.88 C 531.75 787.43 529.37 785.60 530.47 784.19 Z" />
</g>
<g id="#ffffffff">
<path fill="#ffffff" opacity="1.00" d=" M 1.03 1.02 C 189.34 1.00 377.66 0.98 565.97 1.03 C 566.03 265.02 565.98 529.01 566.00 792.99 C 377.67 793.01 189.34 793.00 1.00 793.00 C 1.02 529.01 0.98 265.02 1.03 1.02 M 437.89 61.24 C 430.28 64.70 423.72 70.08 417.89 75.99 C 405.16 87.89 394.98 102.34 387.23 117.89 C 374.64 115.51 361.76 114.72 348.97 115.19 C 336.29 116.60 323.51 118.76 311.69 123.73 C 300.50 128.64 289.63 134.70 280.83 143.29 C 279.13 138.59 277.76 133.69 274.89 129.52 C 268.47 129.35 262.78 132.93 256.83 134.87 C 245.76 139.48 234.28 144.12 225.43 152.47 C 218.10 159.67 213.90 169.27 209.70 178.48 C 202.79 196.49 197.82 215.23 194.19 234.17 C 192.65 243.44 191.91 252.82 190.62 262.12 C 190.33 266.01 190.29 270.00 191.17 273.83 C 192.64 278.71 196.52 282.25 199.67 286.08 C 211.10 299.87 226.44 309.96 242.82 316.93 C 248.20 319.97 254.22 321.54 259.78 324.19 C 263.79 326.09 267.96 327.65 271.99 329.52 C 276.27 321.82 277.92 313.16 280.06 304.72 C 283.50 307.76 287.65 309.90 291.12 312.88 C 292.54 317.63 292.75 322.69 292.48 327.60 C 286.51 331.53 283.95 338.50 282.08 345.07 C 277.52 346.50 272.84 347.45 268.13 348.25 C 256.52 351.01 244.72 347.70 233.03 347.30 C 223.10 346.38 213.35 349.54 204.46 353.70 C 189.98 360.93 176.98 371.43 167.35 384.48 C 166.22 385.92 165.06 387.71 162.98 387.61 C 153.36 387.79 143.75 385.30 135.35 380.64 C 131.23 378.14 126.89 376.04 122.91 373.32 C 122.43 373.92 121.94 374.53 121.46 375.14 C 129.58 380.16 137.62 385.67 146.99 388.08 C 152.43 390.00 158.29 390.00 163.97 389.42 C 160.63 396.13 158.61 403.42 157.14 410.75 C 148.64 409.68 140.45 406.45 133.36 401.65 C 120.53 393.81 111.01 381.66 98.19 373.79 C 85.53 366.30 70.95 360.20 55.93 362.11 C 51.18 362.43 46.86 364.73 42.12 365.13 C 45.17 360.38 50.92 358.93 55.98 357.41 C 72.97 352.24 91.92 355.73 106.73 365.26 C 111.63 368.55 116.68 371.63 121.51 375.02 C 121.44 374.29 121.30 372.83 121.23 372.10 C 110.78 364.59 99.62 357.68 87.09 354.28 C 74.89 351.89 61.79 352.14 50.29 357.29 C 46.75 358.72 43.35 360.75 41.05 363.88 C 41.15 364.65 41.35 366.21 41.45 366.98 C 45.31 367.20 48.74 365.13 52.49 364.63 C 56.61 364.08 60.99 362.59 65.05 364.20 L 64.61 363.53 C 84.11 365.93 101.84 376.47 115.57 390.20 C 126.56 401.55 140.69 411.27 156.81 412.69 C 154.23 426.26 151.43 439.80 147.24 452.97 C 143.87 465.53 139.75 477.96 133.54 489.43 C 130.68 495.26 126.35 500.17 122.07 504.98 C 115.91 512.37 105.54 514.96 100.25 523.23 C 97.27 528.92 95.42 535.14 94.19 541.43 C 91.34 554.08 90.11 567.04 90.23 580.00 C 89.35 589.98 89.92 600.00 90.54 609.98 C 92.18 623.72 93.78 637.60 98.06 650.82 C 99.75 656.21 103.71 660.88 108.95 663.08 C 115.87 665.97 123.46 668.53 131.03 666.87 C 135.34 667.03 139.50 669.17 143.92 668.61 C 148.26 668.69 151.88 666.16 155.79 664.78 C 160.65 665.60 165.87 665.72 170.27 663.17 C 173.44 661.03 177.48 662.40 180.83 660.75 C 186.18 659.18 187.67 653.18 189.31 648.55 C 192.16 637.88 191.07 625.63 184.62 616.43 C 181.92 612.52 177.09 611.08 172.53 611.68 C 171.24 610.22 169.96 608.64 168.15 607.81 C 164.78 605.88 160.78 607.31 157.39 608.39 C 155.40 603.86 154.65 598.92 154.29 594.03 C 153.77 579.74 155.92 565.07 162.47 552.24 C 169.17 546.99 176.70 542.80 183.06 537.09 C 188.39 532.02 194.46 527.60 198.40 521.25 C 202.10 528.02 206.25 534.97 212.64 539.55 C 213.35 545.33 214.05 551.12 214.58 556.92 C 214.74 570.96 215.43 585.02 216.81 599.00 C 218.09 622.26 219.53 645.64 217.19 668.88 C 216.67 674.55 215.01 680.14 215.45 685.88 C 216.72 689.29 219.25 692.05 220.72 695.38 C 224.82 703.60 229.73 711.47 232.84 720.14 C 234.59 722.75 237.49 724.30 240.23 725.68 C 248.02 729.24 257.04 729.67 265.22 727.25 C 270.28 728.91 275.44 731.45 280.98 730.87 C 284.84 730.73 288.05 728.36 291.00 726.12 C 295.94 727.13 302.01 727.83 305.93 723.95 C 308.21 720.94 312.83 723.10 315.16 720.13 C 319.63 715.24 321.51 708.53 321.90 702.05 C 322.10 694.54 321.43 686.41 316.80 680.18 C 314.34 676.88 310.20 675.72 306.52 674.37 C 303.83 672.28 301.28 669.81 297.93 668.83 C 294.45 667.60 290.75 668.38 287.20 668.71 C 284.81 665.21 282.59 661.55 281.18 657.53 C 279.73 653.87 280.29 649.86 280.37 646.03 C 281.06 639.34 282.08 632.68 283.72 626.15 C 287.64 633.12 289.49 640.93 291.70 648.53 C 296.97 655.41 306.50 656.34 314.43 657.83 C 318.27 658.82 322.14 657.90 325.96 657.39 C 332.16 658.97 339.66 660.16 344.77 655.30 C 347.93 655.58 351.40 655.86 354.17 653.97 C 355.99 652.70 358.01 651.81 360.05 650.99 C 363.19 649.84 364.38 646.41 365.45 643.55 C 368.41 635.05 369.59 625.57 367.21 616.80 C 366.07 612.51 362.27 609.57 357.91 609.17 C 355.50 606.79 352.74 604.02 349.08 604.13 C 346.47 603.87 344.18 605.21 342.12 606.62 C 340.88 606.20 339.64 605.79 338.40 605.39 C 334.84 599.05 332.96 591.98 330.74 585.11 C 328.26 575.93 325.68 566.72 324.61 557.25 C 336.53 552.53 346.38 544.04 356.18 536.02 C 355.97 539.74 355.60 543.51 354.14 546.98 C 352.81 549.87 354.31 552.97 354.67 555.93 C 358.42 572.95 363.09 589.76 368.90 606.20 C 372.63 618.19 377.15 629.96 382.95 641.11 C 385.31 646.83 388.06 652.41 391.45 657.60 C 393.59 660.71 397.56 661.50 400.48 663.65 C 408.66 669.47 415.05 677.61 419.48 686.57 C 421.23 689.92 423.09 693.47 426.49 695.44 C 431.85 698.64 437.95 700.48 444.10 701.46 C 450.27 702.78 456.66 703.18 462.91 702.21 C 466.48 701.60 470.26 701.00 473.16 698.65 C 479.39 701.05 486.60 698.90 490.83 693.85 C 494.11 694.01 497.83 693.65 499.92 690.75 C 501.90 688.11 504.98 686.58 506.87 683.87 C 508.88 680.28 509.28 676.06 509.45 672.03 C 509.45 666.33 509.35 660.56 507.92 655.01 C 506.10 647.81 500.77 641.16 493.28 639.48 C 489.96 637.05 486.39 634.31 481.99 634.84 C 474.93 635.93 469.20 640.99 462.05 641.86 C 455.99 643.68 450.21 639.12 447.83 633.85 C 445.09 626.82 443.06 619.49 442.30 611.97 C 439.47 595.72 437.45 579.35 435.11 563.03 C 432.50 548.50 429.87 533.77 423.91 520.18 C 427.19 507.36 429.19 494.21 429.79 481.00 C 430.81 460.49 423.01 441.04 415.46 422.39 C 409.79 410.04 405.10 397.26 399.47 384.91 C 399.69 378.45 399.23 371.86 396.50 365.89 C 398.18 363.46 399.48 360.77 401.29 358.43 C 404.71 357.77 408.16 357.25 411.60 356.72 C 414.87 361.93 416.61 368.29 421.43 372.49 C 425.81 376.61 432.45 379.19 438.34 377.03 C 446.20 374.49 450.57 365.91 450.58 358.03 C 450.61 348.01 446.82 338.13 441.21 329.93 C 446.89 323.36 453.17 317.33 459.77 311.70 C 464.18 307.77 469.08 304.32 472.83 299.70 C 479.17 292.96 483.89 284.84 487.65 276.43 C 491.86 265.21 493.11 253.00 492.62 241.08 C 491.77 235.65 491.13 229.28 486.56 225.55 C 480.40 220.74 473.25 217.45 466.71 213.22 C 462.23 210.54 462.35 204.48 462.58 199.90 C 476.87 194.66 491.17 187.21 500.47 174.78 C 505.42 168.53 508.00 160.76 509.80 153.09 C 511.17 143.39 511.86 133.59 512.52 123.81 C 510.48 122.63 508.41 121.50 506.35 120.38 C 506.32 138.68 501.14 157.84 488.34 171.40 C 481.56 179.15 473.10 185.44 463.44 189.12 C 463.90 180.07 464.70 170.99 463.81 161.94 C 463.01 153.42 463.09 144.27 458.26 136.82 C 454.54 130.69 448.86 123.93 441.02 124.11 C 434.35 124.59 427.63 125.24 420.99 124.13 C 429.65 112.23 433.01 97.76 437.64 84.06 C 438.79 80.02 441.64 76.87 444.22 73.68 C 441.69 73.58 439.17 73.66 436.65 73.58 C 439.75 72.24 443.25 71.89 446.55 72.62 C 452.18 73.66 455.91 78.43 460.35 81.63 C 470.81 91.52 481.38 101.35 492.71 110.25 C 501.25 116.98 511.23 121.49 521.08 125.91 C 531.22 129.76 542.19 132.05 553.07 131.28 C 559.02 120.17 556.99 105.91 550.35 95.53 C 547.59 91.05 544.29 86.03 538.99 84.46 C 533.01 84.09 526.95 84.48 521.07 83.09 C 509.38 80.49 497.81 77.10 486.95 72.00 C 478.74 68.67 470.65 65.04 462.36 61.94 C 454.52 59.45 445.73 57.97 437.89 61.24 M 505.09 777.25 C 505.04 780.15 505.03 783.05 505.09 785.95 C 505.57 785.97 506.53 786.00 507.01 786.02 C 507.03 782.90 507.07 779.78 506.90 776.68 C 506.45 776.82 505.54 777.11 505.09 777.25 M 419.30 779.64 C 416.33 779.49 414.36 781.76 414.85 784.68 C 415.37 785.02 416.42 785.69 416.95 786.02 C 418.37 786.02 419.80 786.03 421.23 786.05 C 421.16 782.88 421.47 779.72 421.50 776.56 C 420.07 777.00 419.33 778.03 419.30 779.64 M 520.91 777.15 C 520.39 778.80 520.94 779.37 522.56 778.84 C 523.05 777.21 522.50 776.64 520.91 777.15 M 448.06 777.07 C 448.06 780.07 448.03 783.07 447.96 786.08 L 449.74 785.95 C 449.78 784.21 450.46 782.76 451.68 781.59 C 452.10 783.47 451.37 786.40 454.22 786.37 C 454.31 784.14 453.95 781.95 453.24 779.85 C 452.43 779.93 450.82 780.08 450.01 780.16 C 450.01 779.38 450.02 777.84 450.02 777.07 L 448.06 777.07 M 441.62 779.98 C 441.55 782.19 441.51 784.41 441.66 786.64 C 443.70 785.79 443.95 783.44 444.85 781.73 C 445.38 783.46 444.72 786.31 447.37 786.47 C 447.27 784.31 447.08 782.17 446.81 780.04 C 445.08 779.98 443.34 779.98 441.62 779.98 M 457.43 779.92 C 455.32 779.78 453.86 782.13 454.66 784.01 C 454.99 786.99 459.84 786.63 460.17 783.88 C 460.70 782.08 459.62 779.44 457.43 779.92 M 461.08 781.08 C 461.19 782.56 462.67 783.10 463.60 784.00 L 460.50 784.00 C 461.19 786.76 465.62 787.00 466.46 784.20 C 466.92 785.79 467.04 787.32 467.15 789.02 L 468.74 788.86 C 467.99 786.03 470.79 786.06 472.36 784.88 C 473.44 783.43 472.21 781.59 472.09 780.04 C 470.34 779.98 468.60 779.97 466.87 779.97 C 466.92 781.10 467.03 783.36 467.08 784.49 C 465.83 783.64 464.55 782.84 463.31 782.00 L 466.12 782.00 C 466.08 781.44 465.99 780.32 465.95 779.76 C 464.28 780.01 462.31 779.66 461.08 781.08 M 540.95 779.85 C 540.90 782.06 540.91 784.27 541.03 786.50 C 542.76 786.05 542.72 784.27 543.18 782.90 C 543.83 782.86 545.12 782.78 545.77 782.74 C 545.91 782.09 546.19 780.80 546.33 780.15 C 544.53 780.00 542.74 779.93 540.95 779.85 M 384.77 780.16 C 385.20 782.05 385.54 783.99 386.27 785.81 C 387.45 786.26 388.17 785.76 388.45 784.33 C 389.26 784.94 389.76 786.29 391.00 786.07 C 392.10 784.40 393.55 782.20 392.86 780.17 C 391.21 779.39 390.95 781.75 390.07 782.59 C 390.00 781.82 389.87 780.27 389.81 779.50 C 388.20 780.00 387.88 781.61 387.39 783.01 C 387.20 781.97 387.01 780.94 386.83 779.93 C 386.31 779.99 385.29 780.10 384.77 780.16 M 393.98 780.09 C 393.16 781.90 393.29 785.69 395.65 786.10 C 395.97 785.65 396.60 784.74 396.92 784.29 C 397.30 784.74 398.04 785.64 398.41 786.09 C 401.17 785.50 400.83 781.64 401.39 779.50 C 399.78 779.88 399.42 781.54 398.73 782.77 C 398.62 781.26 397.94 780.15 396.72 779.44 C 396.35 780.59 396.04 781.81 395.74 782.99 C 395.45 782.12 394.86 780.40 394.56 779.54 L 393.98 780.09 M 401.70 779.49 C 401.67 781.91 402.15 784.31 402.95 786.61 C 404.20 785.86 405.04 784.70 405.64 783.41 C 405.76 784.07 406.01 785.41 406.13 786.07 C 409.37 786.28 409.05 781.77 409.86 779.60 C 408.24 779.88 407.43 780.92 407.44 782.69 C 406.88 781.51 406.19 780.37 405.31 779.41 C 404.78 780.46 404.31 781.61 403.84 782.72 C 403.77 781.14 403.06 780.07 401.70 779.49 M 423.79 779.76 C 422.97 781.17 422.23 782.61 421.58 784.11 C 423.36 786.58 429.23 787.21 428.03 782.79 C 428.72 779.99 425.77 779.72 423.79 779.76 M 428.47 782.30 C 430.72 783.57 432.82 781.96 434.84 781.04 C 433.33 780.15 431.68 779.73 429.90 779.80 C 429.55 780.42 428.83 781.67 428.47 782.30 M 434.61 783.09 C 434.35 787.02 441.16 787.14 441.27 783.16 C 439.46 783.45 437.66 783.69 436.10 782.58 C 437.80 782.64 440.02 783.52 440.94 781.40 C 439.35 778.67 434.56 779.85 434.61 783.09 M 473.26 784.18 C 474.47 787.55 478.84 785.36 481.52 785.95 C 481.69 784.71 481.88 783.49 482.08 782.27 C 483.10 782.57 484.14 782.88 485.18 783.19 C 485.12 782.39 485.00 780.79 484.94 779.99 C 483.27 779.99 481.62 780.00 479.97 780.00 C 479.98 781.91 480.00 783.81 480.00 785.73 C 480.08 782.45 476.73 784.15 474.96 783.87 C 475.18 783.37 475.62 782.38 475.85 781.89 C 476.68 782.13 478.36 782.61 479.19 782.85 C 480.12 777.34 471.66 780.25 473.26 784.18 M 485.89 784.90 C 487.02 786.98 489.80 785.58 491.69 785.97 C 491.47 784.19 491.24 782.41 491.00 780.66 C 488.52 778.13 483.93 781.98 485.89 784.90 M 492.18 782.38 C 490.80 786.04 496.95 787.52 498.30 784.19 C 497.13 784.09 494.77 783.88 493.60 783.78 C 494.35 781.86 496.54 782.01 498.20 781.49 C 496.54 779.25 492.88 779.46 492.18 782.38 M 498.63 781.99 C 496.95 784.90 501.21 787.51 503.37 785.28 C 505.12 783.76 503.79 781.40 503.23 779.64 C 501.62 780.10 498.95 779.73 498.63 781.99 M 508.07 780.99 C 509.27 781.82 510.45 783.05 512.15 782.10 C 511.94 782.62 511.53 783.67 511.32 784.19 C 510.42 783.90 508.63 783.32 507.73 783.03 C 507.28 785.98 511.93 787.26 513.17 784.83 C 514.62 783.41 513.18 781.37 513.02 779.78 C 511.29 779.86 509.64 780.26 508.07 780.99 M 514.39 779.94 C 514.37 782.18 514.39 784.43 514.63 786.68 C 516.32 785.72 516.33 783.65 516.96 782.05 C 517.69 782.39 519.17 783.05 519.90 783.39 L 518.80 781.19 C 519.52 781.14 520.25 781.11 520.98 781.08 C 520.51 782.83 520.35 784.63 520.49 786.47 C 523.46 785.87 521.85 782.17 522.39 780.08 C 519.72 780.24 517.05 780.01 514.39 779.94 M 523.60 779.89 C 523.59 782.13 523.63 784.38 523.80 786.64 C 525.61 785.99 525.42 784.03 525.91 782.55 C 527.61 783.02 529.01 782.74 529.81 781.04 L 529.79 780.74 L 529.56 780.36 L 528.96 780.14 C 527.17 779.96 525.38 779.93 523.60 779.89 M 534.52 782.45 C 533.82 783.95 535.27 785.10 535.90 786.32 C 537.22 785.90 538.97 786.09 539.86 784.80 C 540.66 783.08 539.72 781.34 539.30 779.68 C 537.47 780.01 534.66 779.93 534.52 782.45 M 546.63 783.02 C 545.86 785.61 548.60 786.05 550.40 786.67 C 548.96 786.88 547.51 787.04 546.08 787.26 C 546.26 787.73 546.63 788.67 546.81 789.15 C 548.78 789.23 550.72 789.00 552.02 787.36 C 551.93 785.01 552.84 782.55 552.13 780.29 C 550.07 779.42 546.06 779.97 546.63 783.02 M 429.03 784.26 C 428.68 787.18 434.35 786.64 434.30 783.85 C 432.73 782.36 430.69 783.68 429.03 784.26 M 411.21 784.19 C 410.11 785.61 412.54 787.45 413.53 785.89 C 414.54 784.46 412.20 782.63 411.21 784.19 M 530.47 784.19 C 529.37 785.60 531.75 787.43 532.76 785.88 C 533.86 784.44 531.47 782.62 530.47 784.19 Z" />
<path fill="#ffffff" opacity="1.00" d=" M 345.57 118.96 C 367.90 116.55 390.16 120.86 412.03 124.91 C 418.28 126.04 424.59 127.04 430.96 126.91 C 425.28 130.68 422.47 137.17 420.84 143.55 C 420.40 143.45 419.52 143.26 419.09 143.16 C 422.10 154.52 421.70 166.32 422.54 177.94 C 423.24 189.37 423.16 200.96 425.91 212.15 C 427.24 217.31 430.41 222.73 435.85 224.29 C 441.13 225.77 446.58 224.16 451.87 223.57 C 459.05 224.43 466.00 226.66 472.73 229.24 C 476.07 230.44 477.03 234.08 477.82 237.16 C 481.88 260.66 471.45 285.84 452.09 299.74 C 447.96 298.13 444.42 295.01 440.04 294.15 C 436.80 295.23 434.31 297.76 431.41 299.46 C 424.54 303.48 417.35 308.44 409.01 307.89 C 396.20 307.26 383.27 302.99 373.53 294.48 C 368.56 290.29 367.08 283.44 362.02 279.35 C 365.56 279.60 369.45 278.91 371.17 275.36 C 367.86 276.20 364.60 277.93 361.09 277.11 C 356.45 276.37 350.06 276.93 347.86 281.77 C 350.07 280.88 352.21 279.80 354.37 278.79 C 363.10 287.30 368.04 298.69 373.93 309.16 C 379.31 317.62 384.57 326.23 391.23 333.76 C 394.94 337.92 398.55 343.27 404.73 343.48 C 406.95 347.12 408.94 350.89 410.74 354.76 C 404.90 355.54 398.97 356.21 393.10 355.51 C 389.70 354.96 387.83 351.71 385.62 349.43 C 379.09 342.42 371.81 335.55 362.73 332.08 C 365.98 335.23 370.20 337.17 373.55 340.23 C 379.07 344.80 383.35 350.62 388.45 355.62 C 391.01 358.39 395.11 358.03 398.55 358.40 C 394.29 363.32 392.23 369.58 389.80 375.50 C 388.36 380.08 387.78 385.01 384.97 389.05 C 380.45 395.47 374.34 401.08 366.99 404.05 C 364.00 405.68 361.47 401.84 358.42 402.58 C 355.85 403.07 353.94 404.97 352.19 406.78 C 344.31 405.67 336.30 404.28 329.04 400.88 C 316.38 395.49 305.99 385.45 299.27 373.54 C 301.46 373.31 304.19 373.83 305.72 371.84 C 308.59 368.82 308.32 364.22 307.49 360.45 C 306.20 356.32 303.71 351.67 299.08 350.78 C 296.05 350.67 293.89 353.34 292.34 355.64 C 291.53 352.14 290.43 348.64 290.33 345.03 C 294.63 335.47 295.91 324.55 293.74 314.27 C 295.13 314.62 296.55 315.12 298.01 314.96 C 292.46 311.70 287.09 308.06 282.50 303.52 C 281.56 302.64 280.45 301.48 281.06 300.06 C 284.20 284.89 286.68 269.57 288.21 254.15 C 288.95 239.43 288.66 224.69 289.17 209.96 C 288.69 188.75 286.31 167.51 281.45 146.85 C 283.83 143.79 286.90 141.27 289.97 138.91 C 296.48 134.64 303.13 130.48 310.35 127.49 C 321.60 122.93 333.63 120.77 345.57 118.96 M 304.19 151.17 C 296.46 159.31 293.03 170.72 292.49 181.73 C 292.97 182.41 293.46 183.09 293.95 183.78 C 294.08 179.08 296.34 174.85 298.57 170.85 C 302.78 164.54 307.97 158.43 314.97 155.16 C 323.55 150.88 334.07 150.26 342.92 154.11 C 348.18 156.45 353.98 158.71 357.29 163.71 C 368.17 177.59 376.85 193.58 380.31 211.00 C 381.51 218.16 382.41 225.85 379.93 232.83 C 376.73 237.57 371.68 240.68 367.96 244.99 C 368.15 244.07 368.55 242.21 368.74 241.29 C 368.11 241.33 366.85 241.41 366.22 241.45 C 373.39 225.18 367.89 204.09 353.06 194.02 C 353.43 193.65 354.17 192.91 354.54 192.54 C 351.29 189.18 346.73 186.87 341.96 187.28 C 338.85 187.15 335.98 188.46 332.99 188.97 C 331.74 188.98 333.06 187.08 331.87 187.03 C 322.39 187.87 314.43 196.91 313.87 206.21 C 315.42 203.31 316.58 200.20 318.42 197.45 C 320.87 193.81 324.55 191.16 328.49 189.33 C 328.96 187.11 331.81 189.39 330.32 190.06 C 326.53 192.61 322.66 195.37 320.33 199.41 C 314.53 209.38 313.04 221.93 317.36 232.76 C 320.20 239.29 323.31 245.90 328.11 251.25 C 325.67 252.22 323.28 253.28 320.96 254.49 C 309.06 247.78 298.80 236.59 295.89 222.95 C 293.15 212.91 293.61 202.40 293.10 192.11 C 292.84 189.02 294.06 185.59 292.04 182.88 C 291.38 199.04 291.10 215.85 296.91 231.20 C 302.16 241.07 309.94 249.81 319.73 255.34 C 318.32 256.52 316.96 257.74 315.72 259.09 C 318.88 258.57 321.20 256.14 324.12 255.00 C 329.35 252.22 335.35 251.84 341.09 250.83 C 348.67 250.15 356.64 252.00 363.92 249.04 C 367.38 247.74 369.80 244.84 372.44 242.40 C 375.62 239.22 379.04 236.23 381.70 232.59 C 382.98 228.18 382.57 223.47 382.39 218.93 C 381.16 202.02 374.31 185.95 365.10 171.88 C 362.19 167.24 358.30 163.33 355.41 158.68 C 348.23 147.69 335.23 140.59 322.00 141.33 C 314.70 140.87 308.60 145.89 304.19 151.17 M 404.26 221.40 C 404.03 221.71 403.57 222.33 403.34 222.64 C 408.97 220.98 414.90 219.69 420.78 220.63 C 422.95 220.90 425.27 221.90 427.39 220.86 C 419.92 217.87 411.71 218.94 404.26 221.40 M 405.07 227.56 C 400.94 228.95 396.73 230.98 394.10 234.59 C 396.97 232.71 399.85 230.75 403.18 229.78 C 412.49 227.14 422.15 225.46 431.85 225.82 C 431.57 225.47 431.01 224.78 430.73 224.44 C 422.07 223.75 413.35 225.06 405.07 227.56 M 443.95 230.34 C 436.42 231.52 428.77 232.41 421.49 234.76 C 414.39 237.27 410.37 244.26 407.97 250.98 C 409.39 255.66 411.78 260.22 415.72 263.26 C 424.29 269.67 434.39 273.97 444.94 275.79 C 455.56 269.42 465.83 259.74 467.59 246.87 C 468.22 242.47 468.83 237.40 466.42 233.44 C 460.02 228.65 451.44 229.39 443.95 230.34 M 301.92 336.04 C 298.85 341.12 304.39 349.68 310.51 346.59 C 312.14 342.87 310.86 338.64 308.09 335.86 C 306.37 334.20 303.30 333.72 301.92 336.04 Z" />
<path fill="#ffffff" opacity="1.00" d=" M 270.56 131.69 C 272.29 130.98 274.44 130.92 274.74 133.21 C 284.35 162.41 287.76 193.38 287.09 224.03 C 286.55 235.72 286.83 247.46 285.37 259.09 C 283.13 276.49 280.06 293.77 276.24 310.89 C 275.25 316.46 273.44 321.88 271.06 327.01 C 265.77 324.41 260.65 321.39 255.03 319.55 C 236.05 312.35 217.44 302.55 203.63 287.34 C 200.25 283.19 196.13 279.59 193.51 274.87 C 192.07 269.00 193.48 262.99 194.10 257.11 C 195.37 243.30 197.19 229.50 200.62 216.05 C 205.48 195.91 210.70 175.15 222.91 158.04 C 230.25 148.51 242.14 144.81 252.43 139.49 C 258.59 137.17 264.27 133.70 270.56 131.69 Z" />
<path fill="#ffffff" opacity="1.00" d=" M 426.52 141.53 C 429.76 137.30 434.23 133.00 439.99 133.41 C 447.47 134.70 453.49 139.98 457.76 146.00 C 460.72 150.07 460.60 155.27 461.16 160.05 C 461.64 171.03 461.61 182.04 460.67 193.00 C 460.34 199.93 459.91 207.76 464.36 213.57 C 470.82 218.99 479.08 221.96 485.23 227.82 C 490.18 233.28 489.77 241.15 489.60 248.01 C 488.98 259.24 487.64 270.75 482.53 280.94 C 477.50 291.13 470.86 301.01 461.20 307.33 C 453.40 313.65 446.63 321.15 439.99 328.65 C 437.70 326.43 435.41 324.21 433.05 322.08 C 434.75 315.98 436.83 309.99 439.11 304.08 C 440.03 301.50 441.67 299.28 443.57 297.34 C 446.14 299.11 448.88 300.82 451.99 301.44 C 462.14 296.14 469.06 286.41 474.47 276.59 C 480.39 265.46 481.99 252.52 480.73 240.10 C 479.86 235.31 478.80 229.39 473.80 227.20 C 467.64 224.50 461.10 222.65 454.51 221.37 C 462.26 206.19 457.99 186.51 446.07 174.69 C 445.48 175.06 444.90 175.43 444.32 175.81 C 451.59 182.07 455.96 191.31 456.68 200.83 C 457.91 207.61 456.38 214.74 452.82 220.59 C 450.32 220.67 447.84 220.90 445.47 221.74 C 448.56 215.12 448.56 207.32 446.25 200.46 C 444.17 195.24 440.01 190.19 434.17 189.30 C 430.93 188.42 427.81 189.76 424.88 190.95 C 424.72 187.30 424.47 183.66 424.47 180.01 C 429.00 175.23 436.65 170.37 443.05 174.52 C 443.52 174.06 444.00 173.61 444.49 173.16 C 446.04 173.73 447.61 174.26 449.21 174.75 C 447.69 170.35 442.55 167.90 438.08 168.37 C 432.72 168.48 428.00 171.38 424.17 174.91 C 423.86 171.86 426.76 170.37 429.02 169.12 C 431.88 167.55 435.20 167.45 438.36 167.01 C 433.43 164.25 427.95 167.62 423.91 170.48 C 423.62 164.13 423.09 157.80 422.18 151.51 C 421.45 147.59 424.40 144.45 426.52 141.53 Z" />
<path fill="#ffffff" opacity="1.00" d=" M 323.30 201.32 C 327.54 195.47 334.85 192.19 341.98 192.07 C 348.52 191.94 354.22 196.04 358.31 200.80 C 366.40 209.88 370.39 223.00 367.25 234.92 C 366.55 237.83 365.70 240.73 364.40 243.44 C 362.55 246.41 359.18 247.81 356.03 248.93 C 360.75 242.33 362.13 233.69 360.32 225.85 C 358.60 217.41 351.41 210.40 342.97 208.76 C 338.48 207.90 334.04 209.88 330.63 212.69 C 323.78 218.81 321.89 229.38 325.18 237.81 C 326.89 242.48 329.96 246.58 333.89 249.63 C 332.45 250.01 331.01 250.40 329.58 250.80 C 324.41 245.57 321.21 238.76 318.86 231.88 C 315.12 221.81 316.86 209.92 323.30 201.32 Z" />
<path fill="#ffffff" opacity="1.00" d=" M 434.61 198.03 C 433.86 195.50 437.34 194.50 438.60 196.38 C 440.05 197.65 438.89 199.35 438.44 200.77 C 436.67 200.75 434.27 200.39 434.61 198.03 Z" />
<path fill="#ffffff" opacity="1.00" d=" M 345.49 213.64 C 348.62 212.64 351.14 217.52 348.06 219.22 C 344.74 221.61 341.86 214.95 345.49 213.64 Z" />
<path fill="#ffffff" opacity="1.00" d=" M 421.98 236.32 C 430.85 234.02 439.94 232.55 449.06 231.63 C 454.11 231.06 459.35 231.41 464.02 233.60 C 455.27 236.54 446.33 239.28 437.07 239.85 C 433.35 240.43 429.19 240.52 426.16 243.04 C 420.72 247.50 416.89 253.81 415.37 260.67 C 412.29 257.53 408.01 252.77 410.54 248.18 C 413.02 243.26 416.19 237.72 421.98 236.32 Z" />
<path fill="#ffffff" opacity="1.00" d=" M 433.44 300.40 C 436.06 298.62 438.50 296.02 441.90 296.03 C 436.43 303.26 433.84 312.05 431.31 320.62 C 426.89 317.02 421.93 313.96 416.43 312.36 C 414.77 311.84 413.00 311.38 411.81 310.02 C 419.68 308.64 427.11 305.27 433.44 300.40 Z" />
<path fill="#ffffff" opacity="1.00" d=" M 381.05 317.55 C 384.83 314.96 389.45 313.74 394.01 313.87 C 399.72 314.37 404.44 317.97 409.11 320.95 C 413.81 324.90 419.29 327.90 423.51 332.43 C 426.34 335.33 426.86 339.52 428.59 343.04 C 429.40 337.07 426.00 331.27 421.28 327.84 C 415.50 323.52 409.63 319.31 403.89 314.93 C 408.67 312.94 414.21 312.66 418.87 315.14 C 427.98 319.79 436.76 326.06 441.88 335.14 C 445.69 342.13 448.09 350.03 448.08 358.03 C 447.83 363.92 446.36 370.82 440.56 373.66 C 434.35 377.55 426.53 373.87 422.18 368.87 C 413.13 357.38 409.13 342.20 397.56 332.65 C 396.29 331.47 394.60 331.19 392.95 331.04 C 397.39 333.61 400.86 337.55 403.26 342.06 C 398.62 340.21 395.69 336.04 392.40 332.54 C 388.17 327.89 384.71 322.63 381.05 317.55 Z" />
<path fill="#ffffff" opacity="1.00" d=" M 286.87 340.01 C 287.47 336.40 289.26 332.41 292.82 330.91 C 292.17 333.12 290.83 335.00 289.70 336.97 C 288.38 339.78 287.95 342.98 288.36 346.05 C 290.83 367.06 302.81 386.86 320.43 398.60 C 332.13 405.89 346.29 409.80 360.08 408.14 C 363.23 411.53 365.43 415.74 365.46 420.47 C 352.48 423.76 338.40 422.99 325.97 417.94 C 318.70 415.67 312.28 411.35 306.69 406.26 C 298.38 399.90 293.36 390.44 288.78 381.26 C 283.10 370.08 280.39 356.48 285.03 344.47 C 286.43 353.94 288.54 363.49 293.29 371.90 C 300.64 387.56 313.76 400.60 329.94 406.96 C 339.80 410.60 350.54 412.59 361.02 410.94 C 359.84 410.28 358.53 409.57 357.12 409.93 C 341.39 411.18 325.63 405.50 313.37 395.78 C 302.35 387.45 295.80 374.88 290.47 362.45 C 288.04 355.27 286.02 347.66 286.87 340.01 Z" />
<path fill="#ffffff" opacity="1.00" d=" M 247.94 351.45 C 259.19 352.39 270.69 351.12 281.38 347.44 C 279.50 354.66 279.98 362.31 281.79 369.49 C 283.09 374.66 285.67 379.36 287.79 384.22 C 289.59 388.55 292.83 392.24 293.75 396.93 C 296.67 406.85 298.77 416.99 302.07 426.80 C 304.22 434.29 306.23 441.83 308.16 449.38 C 303.79 449.04 299.42 448.63 295.05 448.51 C 293.90 448.33 292.80 448.63 291.82 449.19 C 297.56 450.49 303.43 451.03 309.18 452.26 C 310.23 457.41 311.11 462.67 310.44 467.94 C 308.23 488.61 302.42 508.91 293.42 527.64 C 292.83 527.48 291.66 527.17 291.07 527.01 C 293.71 537.74 294.84 548.98 292.87 559.93 C 290.30 578.72 286.70 597.35 282.85 615.92 C 280.69 628.46 278.33 641.11 278.69 653.90 C 279.01 659.84 282.02 665.00 285.07 669.91 C 283.60 670.77 282.06 671.49 280.54 672.27 C 277.51 670.74 273.94 670.31 270.80 671.81 C 266.32 673.81 261.68 675.53 257.45 678.00 C 263.83 678.54 268.86 673.40 275.08 673.09 C 277.60 673.20 280.61 673.60 281.97 676.03 C 288.95 686.58 292.42 699.39 292.08 712.01 C 291.53 716.67 291.47 722.33 287.63 725.65 C 280.91 729.24 272.12 728.30 265.77 724.27 C 269.58 713.87 267.30 702.10 262.72 692.32 C 260.59 688.93 258.89 684.61 254.98 682.95 C 250.88 683.21 246.89 684.59 242.90 685.59 C 246.53 687.35 250.33 684.93 254.03 684.70 C 260.11 688.26 262.05 695.70 264.12 701.97 C 265.51 709.01 266.90 716.83 263.69 723.59 C 262.50 726.75 258.58 725.67 255.98 725.92 C 248.74 725.57 240.26 724.48 235.34 718.56 C 230.53 707.47 225.23 696.52 218.39 686.51 C 215.84 683.00 217.92 678.70 218.35 674.89 C 222.87 650.51 220.06 625.66 219.18 601.11 C 217.99 589.75 218.39 578.31 217.37 566.94 C 217.29 554.90 216.30 542.89 214.09 531.05 C 213.02 527.98 215.40 525.44 216.81 522.98 C 221.36 515.25 224.24 506.61 226.23 497.88 C 228.32 485.13 229.18 472.05 227.68 459.19 C 227.37 459.21 226.76 459.24 226.45 459.26 C 226.46 460.40 226.48 461.55 226.50 462.70 C 223.43 463.51 220.30 465.52 219.79 468.91 C 219.13 473.06 222.45 476.38 225.90 478.03 C 225.85 494.23 221.47 510.43 213.06 524.30 C 210.74 528.14 211.68 532.69 212.45 536.83 C 207.44 531.52 202.82 525.63 199.86 518.91 C 203.28 503.81 200.92 488.27 201.45 472.95 C 205.61 472.75 206.43 464.80 201.50 465.58 C 201.80 457.30 201.83 449.02 202.41 440.75 C 201.40 441.51 200.51 442.48 200.55 443.84 C 199.06 456.16 199.65 468.61 199.14 480.98 C 198.54 491.01 199.17 501.05 198.66 511.08 C 198.47 514.93 197.04 518.67 194.78 521.78 C 185.69 533.11 174.00 541.91 162.19 550.20 C 159.06 552.31 155.43 553.81 152.92 556.73 C 155.39 556.15 157.60 554.87 159.81 553.70 C 155.33 560.71 153.87 569.03 152.51 577.10 C 151.59 587.75 150.84 599.02 155.40 609.03 C 153.31 609.42 151.37 610.28 150.06 612.02 C 144.39 613.85 139.36 617.12 133.98 619.62 C 135.42 620.01 136.93 619.99 138.24 619.21 C 142.43 617.17 146.46 614.60 151.06 613.58 C 153.14 613.00 154.81 614.74 155.84 616.32 C 160.76 625.27 162.54 635.81 161.31 645.92 C 160.13 651.73 159.49 658.51 154.62 662.58 C 149.35 665.57 143.01 665.98 137.08 665.50 C 139.74 663.56 141.75 660.81 142.40 657.56 C 144.73 646.97 144.56 634.92 138.17 625.72 C 136.34 622.67 132.34 621.45 129.01 622.44 C 125.67 623.38 122.36 624.45 119.06 625.56 C 117.95 625.73 117.35 626.64 116.85 627.57 C 121.30 626.64 125.56 625.02 129.96 623.91 C 132.39 623.23 135.34 624.26 136.50 626.59 C 142.31 636.32 141.93 648.30 139.94 659.05 C 138.40 664.62 131.71 664.61 127.04 664.74 C 118.93 664.29 110.44 662.20 104.04 656.94 C 102.54 655.96 102.35 654.20 102.32 652.58 C 100.67 650.38 100.22 647.61 99.51 645.04 C 97.30 636.86 95.92 628.49 94.73 620.11 C 93.12 610.17 93.44 600.06 93.30 590.02 C 93.65 579.99 93.18 569.92 94.39 559.93 C 95.88 548.82 97.42 537.58 101.47 527.05 C 102.74 524.07 104.20 520.91 107.10 519.20 C 113.94 514.82 120.88 510.34 126.18 504.09 C 128.42 501.37 131.13 499.03 133.05 496.06 C 138.31 487.14 142.83 477.77 146.06 467.93 C 151.16 450.83 155.82 433.54 158.36 415.85 C 164.28 416.90 168.50 411.60 170.75 406.86 C 172.66 402.55 175.17 397.20 171.95 392.85 C 170.14 391.82 168.00 391.92 166.00 391.77 C 172.27 379.32 183.47 370.51 194.73 362.80 C 204.37 356.21 215.49 351.69 227.10 350.27 C 234.08 349.45 240.97 351.29 247.94 351.45 M 247.25 362.01 C 242.84 365.18 240.83 370.86 240.93 376.11 C 241.04 378.92 243.34 380.54 245.88 381.13 C 252.84 375.22 261.47 370.49 265.57 361.94 C 264.53 360.76 263.83 358.75 261.99 358.69 C 256.90 357.95 251.52 359.13 247.25 362.01 M 215.54 422.76 C 209.46 426.34 205.65 433.04 204.97 439.98 C 204.42 444.23 204.72 449.09 207.62 452.50 C 208.92 454.42 211.66 454.11 213.62 453.62 C 217.53 452.11 217.20 447.13 218.90 443.91 C 220.84 437.97 226.32 432.69 224.41 426.00 C 223.20 422.75 218.57 420.40 215.54 422.76 M 276.87 423.58 C 274.00 425.82 272.52 429.51 272.34 433.09 C 272.94 439.56 276.64 445.73 282.14 449.22 C 286.99 447.94 289.51 442.67 289.03 437.96 C 288.52 432.85 286.06 428.05 282.72 424.23 C 281.24 422.48 278.71 422.31 276.87 423.58 M 289.58 456.83 C 288.12 459.81 287.46 465.42 291.93 465.96 C 297.05 465.24 296.80 456.93 292.23 455.41 C 291.57 455.76 290.24 456.48 289.58 456.83 M 282.36 467.45 C 278.17 469.07 274.04 471.98 272.71 476.49 C 271.58 480.69 271.70 485.95 275.27 489.00 C 277.46 490.37 280.22 489.63 282.26 488.31 C 289.14 484.86 291.01 475.57 288.39 468.84 C 287.52 466.21 284.40 466.54 282.36 467.45 M 203.84 480.95 C 204.37 487.14 205.36 494.25 210.61 498.32 C 213.17 499.69 215.28 497.49 216.29 495.34 C 215.10 489.92 215.00 484.36 214.65 478.85 C 214.37 475.31 212.00 471.21 207.94 471.55 C 204.08 472.83 203.84 477.52 203.84 480.95 M 182.35 497.34 C 178.31 500.24 174.05 503.09 170.97 507.04 C 168.32 510.61 167.92 517.38 172.82 519.19 C 178.06 520.42 183.09 517.00 185.45 512.49 C 188.28 508.35 189.89 502.61 186.98 498.08 C 185.96 496.55 183.81 496.33 182.35 497.34 M 267.17 507.22 C 262.49 509.29 263.29 518.37 269.01 518.01 C 272.04 516.33 273.23 512.22 272.05 509.06 C 271.03 507.51 269.00 505.74 267.17 507.22 Z" />
<path fill="#ffffff" opacity="1.00" d=" M 393.21 378.04 C 393.48 374.84 392.87 371.17 395.28 368.64 C 399.44 379.13 396.07 390.66 391.32 400.32 C 387.07 408.90 379.31 415.17 370.73 419.13 C 370.26 415.53 369.39 412.00 367.93 408.67 C 380.30 404.18 389.88 393.07 392.54 380.15 C 392.02 379.58 391.51 379.00 391.00 378.44 C 390.72 388.55 383.85 397.18 375.94 402.87 C 372.85 404.94 369.51 407.81 365.51 407.03 C 368.54 404.73 372.27 403.60 375.29 401.28 C 380.20 397.56 384.77 393.08 387.44 387.46 C 388.97 383.63 389.83 379.57 391.54 375.81 L 391.44 378.47 C 391.88 378.36 392.76 378.15 393.21 378.04 Z" />
<path fill="#ffffff" opacity="1.00" d=" M 391.15 404.48 C 394.56 399.51 396.87 393.90 398.62 388.16 C 402.31 398.11 406.73 407.77 410.32 417.76 C 407.61 419.11 405.95 421.90 406.16 424.95 C 406.50 431.60 408.67 438.81 414.18 442.99 C 415.93 444.37 418.19 443.21 420.02 442.65 C 424.34 455.35 427.28 468.58 427.22 482.06 C 424.32 482.98 421.97 485.21 421.10 488.16 C 419.07 494.15 418.65 500.92 420.85 506.93 C 421.17 508.55 422.51 509.39 424.00 509.84 C 422.85 517.96 420.24 525.96 420.45 534.21 C 422.03 531.27 422.34 527.89 423.37 524.76 C 430.45 545.56 432.47 567.57 436.15 589.11 C 439.45 605.34 439.95 622.51 447.78 637.46 C 450.27 640.77 453.95 643.28 458.03 644.15 C 463.07 644.56 468.21 643.19 472.56 640.63 C 476.91 638.08 482.18 636.61 487.14 638.15 C 491.64 639.45 494.17 643.74 496.84 647.25 C 503.30 659.04 505.79 673.71 500.78 686.49 C 499.39 690.04 495.61 691.35 492.13 691.75 C 497.16 680.03 496.01 666.21 489.81 655.18 C 486.50 650.36 482.25 645.06 476.00 644.44 C 470.88 644.80 466.79 648.21 462.24 650.19 C 460.00 651.34 457.34 651.84 455.58 653.76 C 462.95 652.84 469.02 648.07 476.03 645.96 C 483.13 649.23 488.33 655.95 490.46 663.41 C 494.16 673.10 493.82 684.59 488.43 693.59 C 485.01 697.20 479.48 697.03 474.91 696.54 C 478.77 687.70 478.98 676.74 473.50 668.52 C 471.06 664.44 468.06 659.81 463.05 658.80 C 460.03 657.89 457.29 660.07 454.57 661.02 C 451.96 662.30 448.62 662.32 446.68 664.71 C 452.47 664.72 457.36 660.39 463.03 660.53 C 474.27 667.26 479.03 683.21 473.17 694.99 C 471.34 698.79 466.77 699.18 463.10 699.80 C 455.02 701.20 446.89 699.56 438.99 697.87 C 434.43 696.64 429.69 695.36 425.88 692.45 C 423.40 690.62 422.46 687.55 421.11 684.92 C 417.31 676.63 411.37 669.47 404.42 663.65 C 401.08 660.88 396.69 659.56 393.74 656.33 C 390.18 651.61 388.17 646.00 385.40 640.84 C 377.31 625.38 372.31 608.60 366.79 592.13 C 363.15 581.04 360.30 569.73 357.28 558.46 C 356.46 555.06 355.53 551.44 356.76 548.02 C 358.09 543.74 358.82 539.18 357.80 534.75 C 372.47 519.78 382.42 500.35 386.50 479.82 C 389.60 466.09 388.82 451.93 389.43 437.96 C 390.01 428.27 388.32 418.58 389.01 408.89 C 389.03 407.16 390.33 405.88 391.15 404.48 Z" />
<path fill="#ffffff" opacity="1.00" d=" M 296.02 398.09 C 301.68 405.38 308.47 412.08 316.83 416.20 C 327.86 422.31 340.53 424.57 353.00 425.15 C 353.51 425.08 354.53 424.94 355.04 424.87 C 355.18 425.06 355.47 425.45 355.61 425.65 C 354.54 425.84 353.47 426.05 352.40 426.28 C 348.66 428.85 345.23 431.98 343.37 436.21 C 341.91 432.28 340.74 428.12 338.21 424.71 C 337.92 428.08 338.95 431.34 339.53 434.63 C 340.35 438.72 340.43 442.91 340.86 447.06 C 331.17 439.75 321.73 432.12 311.97 424.91 C 310.37 423.72 308.67 422.64 306.81 421.92 C 307.61 423.96 309.36 425.32 311.01 426.68 C 315.08 430.00 318.57 433.95 322.27 437.66 C 327.27 442.36 332.23 447.09 337.15 451.87 C 328.26 451.59 319.42 450.47 310.58 449.54 C 306.50 432.18 300.09 415.45 296.02 398.09 Z" />
<path fill="#ffffff" opacity="1.00" d=" M 355.05 406.49 C 357.45 404.89 360.55 403.79 362.99 406.01 C 369.36 411.61 370.77 422.22 366.32 429.39 C 365.03 431.80 362.22 432.02 359.80 432.09 C 361.97 430.95 364.26 429.65 365.27 427.28 C 368.13 420.98 366.70 413.04 361.99 408.02 C 360.21 406.11 357.36 406.88 355.05 406.49 Z" />
<path fill="#ffffff" opacity="1.00" d=" M 370.52 421.26 C 376.93 418.73 382.53 414.56 387.44 409.78 C 388.83 427.80 387.33 445.86 387.15 463.91 C 385.17 488.21 375.49 512.01 359.21 530.24 C 355.53 534.32 350.79 537.15 346.51 540.50 C 339.40 545.95 331.99 551.31 323.50 554.38 C 314.54 557.84 305.19 560.27 295.67 561.53 C 296.45 552.88 297.28 544.03 295.35 535.47 C 294.97 533.68 294.20 531.97 294.19 530.13 C 304.08 513.66 309.11 494.78 312.30 475.98 C 313.45 468.54 314.08 460.75 311.46 453.53 C 312.69 453.14 313.90 452.69 315.09 452.16 C 313.96 451.96 311.71 451.56 310.59 451.35 C 320.40 451.83 330.19 453.21 340.03 453.23 C 334.72 446.10 326.94 441.22 321.26 434.40 C 328.49 438.66 334.20 445.21 341.80 448.87 C 342.05 444.12 341.49 439.40 341.27 434.67 C 343.55 439.91 343.50 446.24 347.33 450.72 C 350.37 450.83 353.34 449.85 356.35 449.51 C 354.22 451.34 351.50 452.61 349.96 455.06 C 352.76 459.57 357.27 462.64 360.45 466.85 C 361.27 467.65 360.34 468.69 360.18 469.57 C 363.92 471.86 367.06 475.33 371.42 476.43 C 366.96 472.07 362.67 467.55 358.56 462.85 C 364.17 462.07 369.80 459.84 373.62 455.52 C 378.48 450.75 379.37 443.06 376.91 436.90 C 375.63 432.96 372.46 430.13 369.37 427.58 C 369.81 425.48 370.20 423.37 370.52 421.26 M 314.05 453.95 C 322.83 456.02 331.73 457.51 340.60 459.18 C 340.30 461.02 339.98 462.86 339.61 464.70 C 340.05 465.41 340.49 466.13 340.95 466.84 C 341.00 464.20 342.35 461.35 341.33 458.77 C 337.64 456.59 333.23 456.46 329.17 455.44 C 324.89 454.37 320.56 453.59 316.30 452.45 C 315.54 452.94 314.79 453.44 314.05 453.95 M 344.57 462.20 C 343.28 464.52 342.07 466.88 340.88 469.25 C 340.28 468.22 339.67 467.20 339.04 466.21 C 339.04 470.98 337.30 475.49 336.57 480.16 C 337.90 479.26 338.77 477.97 339.27 476.48 C 340.76 472.46 342.61 468.59 344.78 464.89 C 348.92 472.11 352.11 479.79 355.97 487.15 C 358.91 492.38 360.71 498.26 364.46 503.02 C 360.44 489.88 356.52 476.69 351.70 463.81 C 354.23 465.22 356.69 466.80 358.92 468.69 C 358.64 467.84 358.40 466.98 358.20 466.12 C 355.54 464.39 352.83 462.74 349.94 461.42 C 351.68 470.58 356.53 478.92 357.86 488.17 C 353.66 479.40 349.95 470.35 344.57 462.20 Z" />
<path fill="#ffffff" opacity="1.00" d=" M 353.42 430.40 C 355.96 427.70 359.80 427.01 363.36 427.20 C 361.92 429.12 358.29 430.11 359.11 433.09 C 359.09 434.94 361.05 435.71 362.18 436.81 C 364.40 434.31 366.44 431.66 368.78 429.27 C 373.66 433.18 377.38 439.54 375.99 445.96 C 374.66 454.92 365.02 461.74 356.12 459.75 C 354.11 458.49 352.55 456.65 350.82 455.06 C 355.29 451.42 360.54 448.78 364.76 444.84 C 359.15 446.45 353.82 449.31 347.84 449.28 C 345.15 442.61 348.65 435.18 353.42 430.40 Z" />
<path fill="#ffffff" opacity="1.00" d=" M 345.48 442.29 C 343.22 437.16 348.05 432.15 352.15 429.61 C 349.32 433.49 346.44 437.46 345.48 442.29 Z" />
<path fill="#ffffff" opacity="1.00" d=" M 320.11 433.23 C 319.50 432.57 319.50 432.57 320.11 433.23 Z" />
<path fill="#ffffff" opacity="1.00" d=" M 320.11 433.23 C 320.26 433.39 320.56 433.70 320.71 433.86 C 320.56 433.70 320.26 433.39 320.11 433.23 Z" />
<path fill="#ffffff" opacity="1.00" d=" M 320.71 433.86 C 320.85 434.00 321.12 434.27 321.26 434.40 C 321.12 434.27 320.85 434.00 320.71 433.86 Z" />
<path fill="#ffffff" opacity="1.00" d=" M 295.40 563.64 C 304.78 563.65 313.71 560.44 322.67 558.06 C 323.31 566.82 325.12 575.47 327.46 583.93 C 329.92 591.25 331.86 598.87 335.97 605.51 C 332.11 606.93 327.25 607.84 324.99 611.64 C 329.93 609.58 335.14 606.05 340.69 607.49 C 344.85 611.11 346.45 616.82 348.07 621.92 C 351.27 632.27 349.33 643.77 344.17 653.14 C 340.01 657.45 333.28 655.61 327.97 655.38 C 332.77 648.36 334.20 639.34 332.46 631.08 C 331.56 625.23 329.15 619.26 324.55 615.36 C 321.28 612.53 316.45 613.85 313.32 616.22 C 310.54 618.41 307.17 620.43 305.81 623.87 C 311.14 620.58 315.89 614.41 322.85 615.60 C 325.78 618.05 327.60 621.59 328.99 625.09 C 331.93 633.72 332.36 643.71 327.98 651.95 C 327.07 653.50 325.96 655.43 323.95 655.61 C 319.20 656.20 314.49 655.01 309.83 654.28 C 304.67 653.27 299.44 651.87 295.00 648.97 C 292.94 647.64 292.70 645.03 292.20 642.86 C 291.05 636.04 288.31 629.53 284.34 623.87 C 287.59 603.71 292.36 583.83 295.40 563.64 Z" />
<path fill="#ffffff" opacity="1.00" d=" M 343.47 606.96 C 347.78 605.84 352.71 606.89 355.83 610.11 C 363.79 621.89 362.44 638.25 355.24 650.08 C 353.81 653.57 349.26 652.65 346.26 653.28 C 350.05 644.80 352.71 635.35 351.13 626.02 C 350.37 619.13 347.60 612.52 343.47 606.96 Z" />
<path fill="#ffffff" opacity="1.00" d=" M 152.61 611.70 C 157.50 610.72 163.06 606.96 167.85 610.13 C 173.64 614.12 175.21 621.70 176.89 628.09 C 177.89 638.30 178.94 649.79 172.68 658.65 C 169.05 662.86 162.94 662.54 157.88 662.78 C 165.08 652.24 165.31 638.41 162.34 626.38 C 160.60 620.71 158.40 614.39 152.61 611.70 Z" />
<path fill="#ffffff" opacity="1.00" d=" M 358.91 610.93 C 362.13 612.23 364.61 615.04 365.27 618.48 C 367.22 627.60 366.04 637.21 362.93 645.93 C 362.20 648.58 359.31 649.48 357.16 650.62 C 362.31 641.24 364.73 630.05 362.26 619.50 C 361.46 616.52 359.95 613.81 358.91 610.93 Z" />
<path fill="#ffffff" opacity="1.00" d=" M 173.97 613.52 C 179.11 614.17 183.66 617.42 185.45 622.34 C 188.40 630.40 190.02 639.60 187.02 647.89 C 185.93 651.04 184.87 654.29 182.94 657.04 C 180.69 658.55 177.91 658.76 175.31 659.13 C 177.57 654.72 179.74 650.07 179.82 645.02 C 179.96 638.14 180.37 631.09 178.38 624.42 C 177.23 620.66 175.39 617.17 173.97 613.52 Z" />
<path fill="#ffffff" opacity="1.00" d=" M 495.28 641.95 C 503.46 645.97 506.34 655.49 507.49 663.86 C 507.93 671.13 508.72 679.87 503.05 685.45 C 506.46 670.78 505.35 653.88 495.28 641.95 Z" />
<path fill="#ffffff" opacity="1.00" d=" M 281.89 673.21 C 287.31 671.28 293.31 669.66 299.01 671.32 C 303.97 673.03 307.07 677.79 308.70 682.55 C 313.09 693.64 313.77 706.70 308.73 717.68 C 305.63 723.79 298.07 724.50 292.03 723.65 C 295.99 712.42 294.01 700.31 290.78 689.17 C 288.91 683.33 286.00 677.79 281.89 673.21 Z" />
<path fill="#ffffff" opacity="1.00" d=" M 308.29 676.64 C 313.18 678.57 316.62 682.97 317.98 687.97 C 320.62 697.50 321.32 708.77 315.16 717.14 C 314.04 719.00 311.88 719.59 309.91 720.04 C 315.98 706.28 315.67 689.86 308.29 676.64 Z" />
<path fill="#ffffff" opacity="1.00" d=" M 416.95 782.19 C 417.91 780.90 420.57 782.25 419.39 783.73 C 418.42 785.14 415.65 783.72 416.95 782.19 Z" />
<path fill="#ffffff" opacity="1.00" d=" M 456.17 782.26 C 457.10 780.81 459.77 782.21 458.51 783.73 C 457.58 785.20 454.82 783.76 456.17 782.26 Z" />
<path fill="#ffffff" opacity="1.00" d=" M 468.60 782.24 C 469.54 780.72 472.21 782.25 470.98 783.77 C 470.02 785.20 467.47 783.70 468.60 782.24 Z" />
<path fill="#ffffff" opacity="1.00" d=" M 487.41 782.24 C 488.35 780.65 490.87 782.34 489.67 783.80 C 488.69 785.30 486.12 783.70 487.41 782.24 Z" />
<path fill="#ffffff" opacity="1.00" d=" M 500.19 782.23 C 501.15 780.81 503.81 782.25 502.53 783.74 C 501.58 785.20 498.85 783.70 500.19 782.23 Z" />
<path fill="#ffffff" opacity="1.00" d=" M 536.19 782.19 C 537.16 780.75 539.80 782.26 538.49 783.73 C 537.51 785.18 534.83 783.65 536.19 782.19 Z" />
<path fill="#ffffff" opacity="1.00" d=" M 548.20 782.28 C 549.10 780.85 551.93 782.10 550.56 783.65 C 549.65 785.12 546.80 783.82 548.20 782.28 Z" />
</g>
</svg>
